<svg width="180" height="48" viewBox="0 0 180 48" fill="none" xmlns="http://www.w3.org/2000/svg">
<g id="Primary CTA - Web">
<rect width="180" height="48" rx="4" fill="black"/>
<g id="Group">
<g id="Group_2">
<g id="&#60;Group&#62;">
<g id="&#60;Group&#62;_2">
<g id="&#60;Group&#62;_3">
<path id="&#60;Path&#62;" d="M49.9363 23.2591C49.9486 22.3263 50.2024 21.4117 50.674 20.6004C51.1455 19.7891 51.8196 19.1075 52.6335 18.6189C52.1165 17.8979 51.4344 17.3045 50.6414 16.8859C49.8484 16.4673 48.9664 16.2351 48.0654 16.2075C46.1434 16.0106 44.2802 17.3305 43.3008 17.3305C42.3024 17.3305 40.7945 16.2271 39.1706 16.2597C38.1203 16.2929 37.0967 16.5911 36.1995 17.1253C35.3023 17.6596 34.5622 18.4117 34.0511 19.3083C31.8376 23.0504 33.4887 28.55 35.6091 31.5749C36.67 33.056 37.9099 34.7105 39.5322 34.6519C41.1198 34.5876 41.7127 33.6634 43.629 33.6634C45.5276 33.6634 46.0839 34.6519 47.7391 34.6146C49.4427 34.5876 50.516 33.1268 51.5396 31.6316C52.3019 30.5762 52.8884 29.4098 53.2775 28.1755C52.2878 27.7668 51.4432 27.0826 50.8491 26.2084C50.2549 25.3341 49.9375 24.3084 49.9363 23.2591Z" fill="white"/>
<path id="&#60;Path&#62;_2" d="M46.8096 14.2174C47.7384 13.1287 48.196 11.7293 48.0852 10.3164C46.6662 10.4619 45.3554 11.1242 44.414 12.1711C43.9537 12.6826 43.6012 13.2776 43.3766 13.9222C43.152 14.5668 43.0597 15.2483 43.105 15.9277C43.8147 15.9349 44.5169 15.7846 45.1586 15.4884C45.8003 15.1921 46.3648 14.7576 46.8096 14.2174Z" fill="white"/>
</g>
</g>
<g id="Group_3">
<path id="Vector" d="M70.0055 30.9004H64.5879L63.2869 34.6514H60.9922L66.1237 20.7734H68.5078L73.6393 34.6514H71.3054L70.0055 30.9004ZM65.149 29.1694H69.4434L67.3264 23.0817H67.2672L65.149 29.1694Z" fill="white"/>
<path id="Vector_2" d="M84.7221 29.5931C84.7221 32.7374 82.9986 34.7575 80.3976 34.7575C79.7387 34.7912 79.0835 34.643 78.5069 34.3299C77.9302 34.0169 77.4556 33.5516 77.1372 32.9873H77.088V37.9989H74.9609V24.5335H77.0198V26.2164H77.0589C77.392 25.6549 77.8747 25.192 78.4557 24.877C79.0367 24.562 79.6943 24.4067 80.3585 24.4276C82.9884 24.4277 84.7221 26.4576 84.7221 29.5931ZM82.5358 29.5931C82.5358 27.5446 81.4516 26.1979 79.7974 26.1979C78.1722 26.1979 77.0791 27.573 77.0791 29.5931C77.0791 31.6318 78.1722 32.9972 79.7974 32.9972C81.4516 32.9972 82.5358 31.6602 82.5358 29.5931Z" fill="white"/>
<path id="Vector_3" d="M96.1283 29.5931C96.1283 32.7374 94.4048 34.7575 91.8038 34.7575C91.145 34.7912 90.4897 34.643 89.9131 34.3299C89.3365 34.0168 88.8618 33.5515 88.5434 32.9873H88.4942V37.9989H86.3672V24.5335H88.426V26.2164H88.4652C88.7982 25.6549 89.2809 25.192 89.8619 24.877C90.4429 24.562 91.1005 24.4067 91.7647 24.4276C94.3947 24.4276 96.1283 26.4576 96.1283 29.5931ZM93.9421 29.5931C93.9421 27.5446 92.8579 26.1979 91.2036 26.1979C89.5784 26.1979 88.4853 27.573 88.4853 29.5931C88.4853 31.6318 89.5784 32.9971 91.2036 32.9971C92.8579 32.9971 93.9421 31.6602 93.9421 29.5931H93.9421Z" fill="white"/>
<path id="Vector_4" d="M103.662 30.7856C103.819 32.1618 105.189 33.0655 107.06 33.0655C108.852 33.0655 110.142 32.1618 110.142 30.9209C110.142 29.8437 109.364 29.1987 107.522 28.7567L105.68 28.3234C103.07 27.7079 101.859 26.5161 101.859 24.5822C101.859 22.1877 103.996 20.543 107.031 20.543C110.034 20.543 112.093 22.1877 112.162 24.5822H110.015C109.886 23.1972 108.714 22.3612 107 22.3612C105.287 22.3612 104.114 23.207 104.114 24.4381C104.114 25.4193 104.863 25.9966 106.695 26.4386L108.261 26.814C111.177 27.4874 112.389 28.6312 112.389 30.6611C112.389 33.2575 110.271 34.8836 106.902 34.8836C103.75 34.8836 101.622 33.2957 101.484 30.7855L103.662 30.7856Z" fill="white"/>
<path id="Vector_5" d="M116.98 22.1406V24.5351H118.95V26.1798H116.98V31.7578C116.98 32.6244 117.374 33.0282 118.241 33.0282C118.474 33.0242 118.708 33.0082 118.94 32.9802V34.615C118.551 34.6861 118.155 34.7183 117.759 34.7111C115.661 34.7111 114.843 33.9417 114.843 31.9794V26.1798H113.336V24.5351H114.843V22.1406H116.98Z" fill="white"/>
<path id="Vector_6" d="M120.094 29.5942C120.094 26.4107 122.014 24.4102 125.008 24.4102C128.013 24.4102 129.924 26.4106 129.924 29.5942C129.924 32.7865 128.023 34.7782 125.008 34.7782C121.995 34.7782 120.094 32.7865 120.094 29.5942ZM127.757 29.5942C127.757 27.4104 126.732 26.1214 125.008 26.1214C123.285 26.1214 122.261 27.4202 122.261 29.5942C122.261 31.7868 123.285 33.0659 125.008 33.0659C126.732 33.0659 127.757 31.7868 127.757 29.5942H127.757Z" fill="white"/>
<path id="Vector_7" d="M131.68 24.5334H133.708V26.2556H133.758C133.895 25.7177 134.218 25.2424 134.671 24.9095C135.125 24.5766 135.683 24.4064 136.25 24.4275C136.495 24.4267 136.74 24.4527 136.979 24.505V26.4477C136.669 26.3554 136.347 26.313 136.023 26.3222C135.714 26.3099 135.406 26.3631 135.12 26.4781C134.834 26.5931 134.577 26.7671 134.367 26.9883C134.156 27.2095 133.997 27.4725 133.9 27.7593C133.804 28.0462 133.772 28.3501 133.807 28.6501V34.6516H131.68L131.68 24.5334Z" fill="white"/>
<path id="Vector_8" d="M146.785 31.6809C146.499 33.5177 144.667 34.7782 142.323 34.7782C139.309 34.7782 137.438 32.8061 137.438 29.6422C137.438 26.4685 139.319 24.4102 142.234 24.4102C145.101 24.4102 146.904 26.3332 146.904 29.401V30.1126H139.585V30.2381C139.551 30.6105 139.599 30.9856 139.725 31.3386C139.851 31.6916 140.052 32.0143 140.316 32.2854C140.58 32.5564 140.899 32.7696 141.254 32.9108C141.608 33.0519 141.99 33.1178 142.372 33.1041C142.875 33.15 143.379 33.0364 143.811 32.78C144.242 32.5235 144.577 32.1381 144.765 31.6809L146.785 31.6809ZM139.595 28.6611H144.775C144.794 28.3263 144.742 27.9912 144.623 27.6769C144.503 27.3626 144.318 27.0759 144.079 26.8348C143.84 26.5937 143.553 26.4033 143.236 26.2757C142.918 26.148 142.577 26.0859 142.234 26.0931C141.887 26.091 141.544 26.156 141.223 26.2843C140.903 26.4125 140.612 26.6014 140.366 26.8402C140.121 27.0789 139.926 27.3628 139.794 27.6753C139.662 27.9878 139.594 28.3229 139.595 28.6611V28.6611Z" fill="white"/>
</g>
</g>
</g>
<g id="&#60;Group&#62;_4">
<g id="Group_4">
<path id="Vector_9" d="M64.8809 10.3279C65.3268 10.2966 65.7743 10.3624 66.191 10.5205C66.6078 10.6785 66.9834 10.9249 67.2908 11.2419C67.5982 11.5589 67.8298 11.9385 67.9687 12.3534C68.1077 12.7684 68.1506 13.2082 68.0943 13.6413C68.0943 15.7717 66.9152 16.9962 64.8809 16.9962H62.4141V10.3279H64.8809ZM63.4748 16.0532H64.7624C65.081 16.0718 65.3999 16.0208 65.6958 15.9039C65.9918 15.7869 66.2572 15.6071 66.473 15.3773C66.6887 15.1476 66.8493 14.8738 66.943 14.5758C67.0367 14.2779 67.0611 13.9633 67.0146 13.6549C67.0578 13.3477 67.0308 13.0351 66.9357 12.7393C66.8406 12.4435 66.6796 12.1719 66.4643 11.944C66.2491 11.7161 65.9849 11.5375 65.6906 11.421C65.3964 11.3045 65.0794 11.253 64.7624 11.2702H63.4748V16.0532Z" fill="white"/>
<path id="Vector_10" d="M69.2927 14.4783C69.2603 14.1475 69.2991 13.8139 69.4065 13.4986C69.5139 13.1834 69.6876 12.8936 69.9164 12.6477C70.1453 12.4019 70.4242 12.2055 70.7354 12.071C71.0465 11.9366 71.383 11.8672 71.7232 11.8672C72.0635 11.8672 72.4 11.9366 72.7111 12.071C73.0223 12.2055 73.3012 12.4019 73.53 12.6477C73.7589 12.8936 73.9326 13.1834 74.04 13.4986C74.1474 13.8139 74.1861 14.1475 74.1537 14.4783C74.1868 14.8093 74.1485 15.1434 74.0413 15.4592C73.9342 15.7749 73.7606 16.0653 73.5317 16.3116C73.3028 16.5579 73.0237 16.7548 72.7122 16.8895C72.4008 17.0242 72.0639 17.0938 71.7232 17.0938C71.3826 17.0938 71.0457 17.0242 70.7343 16.8895C70.4228 16.7548 70.1437 16.5579 69.9147 16.3116C69.6858 16.0653 69.5123 15.7749 69.4051 15.4592C69.298 15.1434 69.2597 14.8093 69.2927 14.4783ZM73.1075 14.4783C73.1075 13.3874 72.6057 12.7495 71.7249 12.7495C70.8408 12.7495 70.3434 13.3874 70.3434 14.4783C70.3434 15.5778 70.8408 16.2108 71.7249 16.2108C72.6057 16.2108 73.1076 15.5735 73.1076 14.4783H73.1075Z" fill="white"/>
<path id="Vector_11" d="M80.6179 16.9972H79.5627L78.4975 13.2909H78.4171L77.3563 16.9972H76.3113L74.8906 11.9648H75.9223L76.8455 15.8048H76.9215L77.9811 11.9648H78.9569L80.0165 15.8048H80.097L81.0158 11.9648H82.0329L80.6179 16.9972Z" fill="white"/>
<path id="Vector_12" d="M83.2266 11.9654H84.2057V12.7648H84.2817C84.4106 12.4777 84.6281 12.237 84.9038 12.0763C85.1795 11.9156 85.4997 11.8428 85.8197 11.8682C86.0705 11.8498 86.3223 11.8867 86.5564 11.9763C86.7906 12.0658 87.0012 12.2056 87.1725 12.3853C87.3438 12.5651 87.4715 12.7802 87.5461 13.0147C87.6208 13.2492 87.6404 13.497 87.6036 13.7399V16.9977H86.5865V13.9893C86.5865 13.1806 86.2266 12.7785 85.4743 12.7785C85.3041 12.7707 85.1341 12.799 84.9761 12.8614C84.8181 12.9238 84.6757 13.0188 84.5589 13.1399C84.442 13.2611 84.3533 13.4054 84.2989 13.5632C84.2445 13.7209 84.2257 13.8882 84.2437 14.0537V16.9977H83.2266L83.2266 11.9654Z" fill="white"/>
<path id="Vector_13" d="M89.2266 10H90.2437V16.9968H89.2266V10Z" fill="white"/>
<path id="Vector_14" d="M91.6521 14.4783C91.6197 14.1476 91.6585 13.8139 91.7659 13.4987C91.8733 13.1834 92.0471 12.8936 92.2759 12.6477C92.5048 12.4019 92.7838 12.2055 93.0949 12.071C93.4061 11.9366 93.7426 11.8672 94.0829 11.8672C94.4231 11.8672 94.7596 11.9366 95.0708 12.071C95.382 12.2055 95.6609 12.4019 95.8898 12.6477C96.1187 12.8936 96.2924 13.1834 96.3998 13.4987C96.5073 13.8139 96.546 14.1476 96.5136 14.4783C96.5466 14.8094 96.5083 15.1435 96.4011 15.4593C96.294 15.775 96.1204 16.0654 95.8914 16.3117C95.6625 16.558 95.3834 16.7549 95.0719 16.8896C94.7604 17.0243 94.4235 17.0939 94.0829 17.0939C93.7422 17.0939 93.4053 17.0243 93.0939 16.8896C92.7824 16.7549 92.5032 16.558 92.2743 16.3117C92.0454 16.0654 91.8717 15.775 91.7646 15.4593C91.6574 15.1435 91.6191 14.8094 91.6521 14.4783ZM95.4669 14.4783C95.4669 13.3875 94.965 12.7496 94.0843 12.7496C93.2001 12.7496 92.7028 13.3875 92.7028 14.4784C92.7028 15.5779 93.2002 16.2109 94.0843 16.2109C94.965 16.2109 95.4669 15.5735 95.4669 14.4783H95.4669Z" fill="white"/>
<path id="Vector_15" d="M97.5859 15.5735C97.5859 14.6677 98.2767 14.1454 99.5028 14.0712L100.899 13.9926V13.5583C100.899 13.0268 100.539 12.7266 99.8437 12.7266C99.2759 12.7266 98.8825 12.9302 98.7696 13.286H97.7849C97.8888 12.4216 98.7216 11.8672 99.8907 11.8672C101.183 11.8672 101.912 12.4953 101.912 13.5583V16.9967H100.932V16.2894H100.852C100.689 16.5431 100.459 16.7499 100.187 16.8887C99.9153 17.0276 99.6104 17.0934 99.3039 17.0796C99.0875 17.1015 98.8688 17.079 98.662 17.0134C98.4551 16.9478 98.2646 16.8406 98.1027 16.6987C97.9408 16.5568 97.8112 16.3834 97.7222 16.1896C97.6332 15.9958 97.5868 15.7859 97.5859 15.5735ZM100.899 15.1435V14.7228L99.6403 14.8013C98.9306 14.8477 98.6086 15.0835 98.6086 15.5271C98.6086 15.98 99.011 16.2436 99.5643 16.2436C99.7265 16.2596 99.8902 16.2436 100.046 16.1966C100.202 16.1496 100.346 16.0724 100.47 15.9698C100.595 15.8671 100.697 15.7411 100.771 15.5991C100.844 15.4572 100.888 15.3022 100.899 15.1435Z" fill="white"/>
<path id="Vector_16" d="M103.25 14.4785C103.25 12.8883 104.087 11.881 105.389 11.881C105.711 11.8665 106.031 11.9418 106.311 12.0982C106.591 12.2545 106.819 12.4854 106.97 12.7639H107.046V10H108.063V16.9968H107.088V16.2017H107.008C106.846 16.4783 106.609 16.7064 106.324 16.8611C106.039 17.0159 105.715 17.0915 105.389 17.0798C104.078 17.0798 103.25 16.0724 103.25 14.4785ZM104.301 14.4785C104.301 15.5459 104.816 16.1881 105.678 16.1881C106.535 16.1881 107.065 15.5366 107.065 14.4829C107.065 13.434 106.529 12.7732 105.678 12.7732C104.822 12.7732 104.301 13.4198 104.301 14.4785H104.301Z" fill="white"/>
<path id="Vector_17" d="M112.269 14.4783C112.237 14.1475 112.276 13.8139 112.383 13.4986C112.49 13.1834 112.664 12.8936 112.893 12.6477C113.122 12.4019 113.401 12.2055 113.712 12.071C114.023 11.9366 114.36 11.8672 114.7 11.8672C115.04 11.8672 115.377 11.9366 115.688 12.071C115.999 12.2055 116.278 12.4019 116.507 12.6477C116.735 12.8936 116.909 13.1834 117.017 13.4986C117.124 13.8139 117.163 14.1475 117.13 14.4783C117.163 14.8093 117.125 15.1434 117.018 15.4592C116.911 15.7749 116.737 16.0653 116.508 16.3116C116.279 16.5579 116 16.7548 115.689 16.8895C115.377 17.0242 115.04 17.0938 114.7 17.0938C114.359 17.0938 114.022 17.0242 113.711 16.8895C113.399 16.7548 113.12 16.5579 112.891 16.3116C112.662 16.0653 112.489 15.7749 112.382 15.4592C112.275 15.1434 112.236 14.8093 112.269 14.4783ZM116.084 14.4783C116.084 13.3874 115.582 12.7495 114.701 12.7495C113.817 12.7495 113.32 13.3874 113.32 14.4783C113.32 15.5778 113.817 16.2108 114.701 16.2108C115.582 16.2108 116.084 15.5735 116.084 14.4783Z" fill="white"/>
<path id="Vector_18" d="M118.492 11.9654H119.471V12.7648H119.547C119.676 12.4777 119.894 12.237 120.169 12.0763C120.445 11.9156 120.765 11.8428 121.085 11.8682C121.336 11.8498 121.588 11.8867 121.822 11.9763C122.056 12.0658 122.267 12.2056 122.438 12.3853C122.609 12.5651 122.737 12.7802 122.812 13.0147C122.886 13.2492 122.906 13.497 122.869 13.7399V16.9977H121.852V13.9893C121.852 13.1806 121.492 12.7785 120.74 12.7785C120.57 12.7707 120.4 12.799 120.242 12.8614C120.084 12.9238 119.941 13.0188 119.824 13.1399C119.708 13.2611 119.619 13.4054 119.565 13.5632C119.51 13.7209 119.491 13.8882 119.509 14.0537V16.9977H118.492V11.9654Z" fill="white"/>
<path id="Vector_19" d="M128.618 10.7109V11.9868H129.734V12.8233H128.618V15.411C128.618 15.9381 128.84 16.1689 129.346 16.1689C129.476 16.1685 129.606 16.1609 129.734 16.146V16.9733C129.552 17.0052 129.367 17.0221 129.181 17.024C128.05 17.024 127.599 16.6355 127.599 15.6652V12.8233H126.781V11.9867H127.599V10.7109H128.618Z" fill="white"/>
<path id="Vector_20" d="M131.125 10H132.133V12.7732H132.214C132.349 12.4834 132.572 12.2413 132.854 12.08C133.135 11.9187 133.46 11.846 133.785 11.8717C134.035 11.8585 134.284 11.8991 134.516 11.9908C134.747 12.0825 134.955 12.223 135.125 12.4021C135.294 12.5813 135.421 12.7948 135.496 13.0275C135.572 13.2601 135.593 13.506 135.56 13.7478V16.9968H134.542V13.9928C134.542 13.189 134.159 12.7819 133.44 12.7819C133.265 12.7679 133.089 12.7914 132.925 12.8507C132.76 12.91 132.611 13.0036 132.487 13.1252C132.364 13.2467 132.269 13.3931 132.209 13.5542C132.149 13.7153 132.127 13.8871 132.142 14.0577V16.9968H131.125L131.125 10Z" fill="white"/>
<path id="Vector_21" d="M141.495 15.638C141.357 16.0979 141.058 16.4957 140.649 16.7619C140.241 17.028 139.75 17.1456 139.262 17.0939C138.923 17.1026 138.585 17.0391 138.273 16.9078C137.961 16.7764 137.682 16.5804 137.456 16.3332C137.229 16.0861 137.061 15.7938 136.961 15.4766C136.862 15.1594 136.835 14.8249 136.881 14.4964C136.836 14.1668 136.864 13.8317 136.963 13.5135C137.062 13.1954 137.23 12.9017 137.455 12.6524C137.68 12.4031 137.958 12.204 138.269 12.0685C138.58 11.9331 138.917 11.8644 139.258 11.8673C140.692 11.8673 141.557 12.8239 141.557 14.4042V14.7507H137.917V14.8064C137.902 14.991 137.925 15.1769 137.987 15.3521C138.049 15.5273 138.148 15.6879 138.277 15.8236C138.406 15.9594 138.563 16.0672 138.738 16.1403C138.912 16.2134 139.1 16.2501 139.29 16.248C139.533 16.2765 139.78 16.2338 139.998 16.1251C140.217 16.0165 140.397 15.8469 140.516 15.6379L141.495 15.638ZM137.917 14.0162H140.521C140.533 13.8473 140.51 13.6776 140.452 13.5182C140.393 13.3587 140.301 13.2128 140.182 13.0901C140.063 12.9673 139.918 12.8703 139.758 12.8053C139.598 12.7402 139.425 12.7087 139.252 12.7125C139.076 12.7104 138.902 12.7426 138.739 12.8074C138.576 12.8722 138.428 12.9681 138.303 13.0896C138.179 13.2111 138.081 13.3557 138.014 13.5148C137.948 13.6739 137.915 13.8444 137.917 14.0162H137.917Z" fill="white"/>
</g>
</g>
</g>
</g>
</svg>
