<svg width="24" height="24" viewBox="0 0 24 24" fill="none" xmlns="http://www.w3.org/2000/svg">
<g id="Group 3756">
<path id="Union" fill-rule="evenodd" clip-rule="evenodd" d="M8.16078 1.872H15.8408C16.6626 1.872 17.3288 2.5382 17.3288 3.36V3.46311H6.67278V3.36C6.67278 2.5382 7.33898 1.872 8.16078 1.872ZM6.67278 5.33511V16.804H17.3288V5.33511H6.67278ZM6.67278 20.64V18.676H17.3288V20.64C17.3288 21.4618 16.6626 22.128 15.8408 22.128H8.16078C7.33898 22.128 6.67278 21.4618 6.67278 20.64ZM4.80078 3.36C4.80078 1.50432 6.3051 0 8.16078 0H15.8408C17.6965 0 19.2008 1.50432 19.2008 3.36V20.64C19.2008 22.4957 17.6965 24 15.8408 24H8.16078C6.30511 24 4.80078 22.4957 4.80078 20.64V3.36ZM10.8011 19.8067C10.4698 19.8067 10.2011 20.0754 10.2011 20.4067C10.2011 20.7381 10.4698 21.0067 10.8011 21.0067H13.2011C13.5325 21.0067 13.8011 20.7381 13.8011 20.4067C13.8011 20.0754 13.5325 19.8067 13.2011 19.8067H10.8011Z" fill="#333333"/>
</g>
</svg>
