<svg width="62" height="24" viewBox="0 0 62 24" fill="none" xmlns="http://www.w3.org/2000/svg">
<g id="Frame 3917" clip-path="url(#clip0_9234_41948)">
<rect width="62" height="24" fill="white"/>
<g id="Frame 61">
<path id="Rectangle 657" d="M10.6016 6.08594C10.6016 4.98137 11.497 4.08594 12.6016 4.08594H60.0016C61.1061 4.08594 62.0016 4.98137 62.0016 6.08594V17.2713C62.0016 18.3759 61.1061 19.2713 60.0016 19.2713H12.6016C11.497 19.2713 10.6016 18.3759 10.6016 17.2713V6.08594Z" fill="#FDE9F2"/>
<g id="Meesho Safe Copy">
<path d="M27.2907 7.00781H21.4141V8.21203H23.7271V15.0359H24.9887V8.21203H27.2907V7.00781Z" fill="#F43397"/>
<path d="M27.2742 9.61122V15.0359H28.4695V12.5013C28.4695 11.2283 29.056 10.7122 29.8529 10.7122C29.9967 10.7122 30.1517 10.7352 30.2513 10.781V9.57681C30.1627 9.53094 30.0189 9.49653 29.8418 9.49653C29.222 9.49653 28.6797 9.86353 28.4141 10.4828H28.392V9.61122H27.2742Z" fill="#F43397"/>
<path d="M35.7599 15.0359V9.61122H34.5536V12.7307C34.5536 13.545 34.0113 14.1184 33.3251 14.1184C32.6943 14.1184 32.3291 13.6712 32.3291 12.8339V9.61122H31.1339V13.0862C31.1339 14.4052 31.8422 15.208 32.971 15.208C33.7125 15.208 34.3101 14.841 34.5978 14.3134H34.6532V15.0359H35.7599Z" fill="#F43397"/>
<path d="M39.169 15.208C40.4085 15.208 41.2496 14.5198 41.2496 13.4188C41.2496 11.2512 38.3832 12.2146 38.3832 11.0219C38.3832 10.6663 38.6488 10.3796 39.169 10.3796C39.6449 10.3796 40.0322 10.6663 40.0875 11.0677L41.2053 10.8269C41.0172 10.0012 40.1982 9.43919 39.1358 9.43919C37.9737 9.43919 37.188 10.1044 37.188 11.1136C37.188 13.2812 40.0543 12.3178 40.0543 13.5106C40.0543 13.9693 39.7555 14.279 39.2022 14.279C38.6599 14.279 38.2172 13.9808 38.0844 13.4991L36.9888 13.7285C37.2433 14.6575 38.0512 15.208 39.169 15.208Z" fill="#F43397"/>
<path d="M44.6156 15.1506C45.0029 15.1506 45.335 15.0818 45.512 14.9901L45.3792 13.9923C45.2575 14.0611 45.0804 14.107 44.848 14.107C44.2836 14.107 44.0069 13.8432 44.0069 13.0404V10.6663H45.4567V9.61122H44.0069V7.87944L42.8006 8.12028V9.61122H41.8488V10.6663H42.8006V13.2468C42.8006 14.6575 43.5421 15.1506 44.6156 15.1506Z" fill="#F43397"/>
<path d="M51.0858 13.717L50.0787 13.4074C49.8462 13.9005 49.4146 14.1758 48.8502 14.1758C48.0091 14.1758 47.4336 13.5565 47.323 12.6504H51.296V12.3408C51.2739 10.4714 50.134 9.43919 48.7063 9.43919C47.168 9.43919 46.1056 10.6893 46.1056 12.3408C46.1056 13.9808 47.2234 15.208 48.8391 15.208C49.8905 15.208 50.6541 14.6919 51.0858 13.717ZM48.7285 10.4026C49.4036 10.4026 49.9901 10.8384 50.0454 11.8017H47.334C47.4668 10.9072 47.9648 10.4026 48.7285 10.4026Z" fill="#F43397"/>
<path d="M52.161 12.3293C52.161 14.0382 53.2013 15.208 54.6068 15.208C55.304 15.208 56.0012 14.9098 56.3443 14.2102H56.3775V15.0359H57.4842V7.00781H56.2779V10.3108C56.0012 9.80619 55.4147 9.43919 54.6289 9.43919C53.2234 9.43919 52.161 10.5975 52.161 12.3293ZM53.3673 12.3293C53.3673 11.3086 53.9317 10.5287 54.8503 10.5287C55.7578 10.5287 56.3111 11.2742 56.3111 12.3293C56.3111 13.373 55.7578 14.107 54.8503 14.107C53.9538 14.107 53.3673 13.35 53.3673 12.3293Z" fill="#F43397"/>
</g>
<g id="Group 3530">
<path id="Combined Shape" d="M18.0356 3.78293L9.61234 0.0697614C9.40133 -0.023231 9.16415 -0.0232766 8.95318 0.0697614L0.529934 3.78293C0.20912 3.92438 0 4.25693 0 4.62575V12.0551C0 18.2704 3.53815 20.9457 8.95795 23.2945C9.16613 23.3847 9.39936 23.3847 9.60757 23.2945C15.0273 20.9458 18.5655 18.2705 18.5655 12.0551V4.62575C18.5655 4.25693 18.3565 3.92438 18.0356 3.78293Z" fill="#F7A8CA"/>
<path id="Combined Shape_2" d="M17.1883 4.54957L9.58036 1.19582C9.38977 1.11183 9.17555 1.11179 8.985 1.19582L1.37708 4.54957C1.08732 4.67733 0.898438 4.97769 0.898438 5.31081V12.0211C0.898438 17.6348 4.09411 20.0511 8.98931 22.1725C9.17733 22.254 9.38799 22.254 9.57605 22.1725C14.4712 20.0511 17.6669 17.6348 17.6669 12.0211V5.31081C17.6669 4.97769 17.4781 4.67733 17.1883 4.54957Z" fill="#F43397"/>
<path id="XMLID 41  path Copy 4" d="M11.6711 7.54083C12.5779 7.548 13.3421 7.86713 13.971 8.49465C14.6072 9.12574 14.9217 9.87876 14.9144 10.768L14.8888 14.9491C14.8851 15.4475 14.4719 15.8491 13.96 15.8491C13.4518 15.8455 13.0423 15.4403 13.0459 14.9419L13.0715 10.7609C13.0752 10.3736 12.9436 10.0437 12.6584 9.7676C12.3915 9.49508 12.0551 9.35882 11.6602 9.35882C11.258 9.35523 10.907 9.49867 10.6218 9.7927C10.3622 10.058 10.2342 10.4238 10.2305 10.7931L10.2086 14.9132C10.2049 15.4188 9.78446 15.8276 9.26891 15.824C8.75336 15.8204 8.33653 15.408 8.34019 14.9024L8.36578 10.7573C8.36944 10.3951 8.24146 10.0365 7.98917 9.77118C7.70763 9.47715 7.36393 9.33372 6.95442 9.33013C6.56684 9.32655 6.23777 9.45564 5.94892 9.72816C5.67834 9.99709 5.53209 10.327 5.53209 10.7142L5.5065 14.8917C5.50284 15.3937 5.08601 15.7989 4.57412 15.7953C4.06223 15.7917 3.65271 15.3829 3.65627 14.8809L3.68196 10.7178C3.68562 9.94689 3.9635 9.19029 4.48637 8.61656C5.1628 7.87789 5.99645 7.50856 6.96539 7.51573C7.89045 7.5229 8.68023 7.84921 9.31278 8.51258C9.96362 7.85279 10.7461 7.53724 11.6711 7.54083Z" fill="white"/>
</g>
</g>
</g>
<defs>
<clipPath id="clip0_9234_41948">
<rect width="62" height="24" fill="white"/>
</clipPath>
</defs>
</svg>
