<svg width="10" height="10" viewBox="0 0 10 10" fill="none" xmlns="http://www.w3.org/2000/svg">
<g id="Frame" clip-path="url(#clip0_13944_398)">
<g id="Group">
<path id="Vector" d="M9.7685 3.59015L6.8085 2.8826L5.2535 0.151992C5.1985 0.057652 5.1035 0 4.9985 0C4.8935 0 4.7985 0.057652 4.7435 0.151992L3.1885 2.8826L0.2285 3.59015C0.1285 3.61635 0.0435 3.69497 0.0135 3.79979C-0.0165 3.90461 0.0035 4.01992 0.0735 4.10377L2.0685 6.49895L1.7935 9.66457C1.7835 9.77463 1.8285 9.87945 1.9135 9.94759C1.9985 10.0105 2.1085 10.0262 2.2085 9.98428L4.9985 8.72117L7.7885 9.97379C7.8285 9.98952 7.8685 10 7.9035 10C7.9035 10 7.9035 10 7.9085 10C8.0585 10.0052 8.2085 9.86373 8.2085 9.68553C8.2085 9.65409 8.2035 9.62264 8.1935 9.59644L7.9235 6.48847L9.9185 4.09329C9.9885 4.00943 10.0085 3.89413 9.9785 3.78931C9.9535 3.68973 9.8685 3.61111 9.7685 3.59015Z" fill="white"/>
</g>
</g>
<defs>
<clipPath id="clip0_13944_398">
<rect width="10" height="10" fill="white"/>
</clipPath>
</defs>
</svg>
