<svg width="74" height="48" viewBox="0 0 74 48" fill="none" xmlns="http://www.w3.org/2000/svg">
<g id="Group 3594">
<g id="Group 3591">
<g id="Group 3666">
<path id="Vector" d="M73.7256 25.0303V4.55647C73.7256 2.04001 71.6848 0.000193648 69.1683 0.000567611C68.2739 0.00070053 67.4411 0.000795195 66.8833 0.000795195C65.0111 0.000795195 42.7591 0.000795195 42.7591 0.000795195C41.8848 0.000795195 39.7226 0.000410345 37.6661 9.26406e-08C35.1496 -0.000501921 33.1094 2.03934 33.1094 4.55582L33.1094 43.4442C33.1094 45.9603 35.1479 48 37.664 48C38.8326 48 40.1615 48 41.5711 48C45.0507 48 61.1634 48 69.1761 48C71.6922 48 73.7256 45.9603 73.7256 43.4442V25.0303Z" fill="white"/>
<path id="Vector_2" d="M40.4922 7.25338C40.4922 6.30659 41.2597 5.53906 42.2065 5.53906H64.6245C65.5713 5.53906 66.3389 6.30659 66.3389 7.25338V29.6714C66.3389 30.6182 65.5713 31.3857 64.6245 31.3857H42.2065C41.2597 31.3857 40.4922 30.6182 40.4922 29.6714V7.25338Z" fill="#CCDBFF"/>
<path id="Vector_3" d="M42.332 36.4628C42.332 35.6981 42.952 35.0781 43.7167 35.0781H63.1017C63.8664 35.0781 64.4863 35.6981 64.4863 36.4628C64.4863 37.2275 63.8664 37.8474 63.1017 37.8474H43.7167C42.952 37.8474 42.332 37.2275 42.332 36.4628Z" fill="#CCDBFF"/>
<path id="Vector_4" d="M47.875 41.5403C47.875 41.0305 48.2883 40.6172 48.7981 40.6172H58.029C58.5389 40.6172 58.9521 41.0305 58.9521 41.5403C58.9521 42.0501 58.5389 42.4634 58.0291 42.4634H48.7981C48.2883 42.4634 47.875 42.0501 47.875 41.5403Z" fill="#CCDBFF"/>
<path id="Mask" fill-rule="evenodd" clip-rule="evenodd" d="M15.2268 14.1481L19.6122 4.77512C20.181 3.55933 21.91 3.55934 22.4788 4.77512L26.8642 14.1481C27.3251 15.1321 28.244 15.8208 29.3155 15.9848L39.438 17.5359C40.7097 17.7308 41.2297 19.2811 40.3327 20.2034L32.8503 27.8967C32.1303 28.6367 31.8034 29.676 31.9698 30.6976L33.7017 41.3498C33.9138 42.6543 32.5281 43.6286 31.3723 42.9877L22.6174 38.133C21.6394 37.5906 20.4516 37.5906 19.4736 38.133L10.7187 42.9877C9.56292 43.6286 8.17726 42.6543 8.38934 41.3498L10.1212 30.6976C10.2877 29.676 9.96069 28.6367 9.24075 27.8967L1.75833 20.2034C0.861334 19.2811 1.38134 17.7308 2.65304 17.5359L12.7755 15.9848C13.847 15.8208 14.7659 15.1321 15.2268 14.1481Z" fill="#366EFF"/>
<path id="Mask (Stroke)" fill-rule="evenodd" clip-rule="evenodd" d="M21.5417 5.21617C21.3426 4.79065 20.7375 4.79065 20.5384 5.21617L16.153 14.5892C15.547 15.8829 14.3377 16.7905 12.9258 17.0066C12.9257 17.0066 12.9259 17.0066 12.9258 17.0066L2.80337 18.5578C2.35827 18.626 2.17628 19.1686 2.49022 19.4914L9.97252 27.1846C9.97248 27.1845 9.97256 27.1846 9.97252 27.1846C10.92 28.1585 11.3496 29.5254 11.131 30.8678L9.39913 41.52C9.32491 41.9766 9.80989 42.3176 10.2144 42.0933L18.9693 37.2386C20.2576 36.5241 21.8225 36.5241 23.1108 37.2386L31.8657 42.0933C32.2702 42.3176 32.7552 41.9766 32.681 41.5201L30.9491 30.8681C30.9491 30.868 30.9491 30.8682 30.9491 30.8681C30.7305 29.5258 31.1599 28.1586 32.1074 27.1847C32.1074 27.1847 32.1075 27.1846 32.1074 27.1847L39.5899 19.4914C39.9038 19.1686 39.7218 18.626 39.2767 18.5578L29.1545 17.0067C29.1544 17.0067 29.1545 17.0067 29.1545 17.0067C27.7426 16.7905 26.5332 15.8833 25.9272 14.5896L21.5417 5.21617ZM18.6751 4.34438C19.6136 2.33833 22.4665 2.33833 23.405 4.34438L27.7902 13.717C27.7901 13.7168 27.7902 13.7171 27.7902 13.717C28.1061 14.391 28.7347 14.8613 29.4657 14.9732L39.5883 16.5243C41.6866 16.8459 42.5446 19.4039 41.0646 20.9257L33.5822 28.619C33.09 29.1249 32.8654 29.8367 32.9795 30.5373L34.7115 41.1899C35.0614 43.3422 32.7751 44.9498 30.8681 43.8924L22.1131 39.0377C21.4454 38.6674 20.6347 38.6674 19.9671 39.0377L11.212 43.8924C9.30502 44.9498 7.01868 43.3422 7.36861 41.1899L9.1005 30.5377C9.21465 29.8371 8.99026 29.125 8.49804 28.6191L1.0155 20.9257C-0.464542 19.4039 0.393472 16.8459 2.49177 16.5243L12.6142 14.9732C13.3454 14.8613 13.9741 14.3912 14.2899 13.717L18.6751 4.34438Z" fill="#8FAFF8"/>
</g>
</g>
</g>
</svg>
