<svg width="16" height="16" viewBox="0 0 16 16" fill="none" xmlns="http://www.w3.org/2000/svg">
<g id="Icon">
<path id="Shape" fill-rule="evenodd" clip-rule="evenodd" d="M13.8332 5.7332C13.8339 5.91945 14.839 7.47789 14.839 7.47789C15.0541 7.79004 13.9946 9.74788 13.9946 9.74788C13.8903 9.89908 13.8273 11.7766 13.8273 11.7766C13.8258 12.1616 11.8658 13.094 11.8658 13.094C11.6959 13.1524 10.5901 14.6334 10.5901 14.6334C10.3723 14.9446 8.26227 14.4952 8.26227 14.4952C8.09187 14.438 6.36358 14.957 6.36358 14.957C6.01233 15.075 4.55844 13.4158 4.55844 13.4158C4.45286 13.2649 2.76199 12.6226 2.76199 12.6226C2.41194 12.5023 2.16736 10.2669 2.16736 10.2669C2.16663 10.0806 1.16164 8.52298 1.16164 8.52298C0.946508 8.21088 2.00611 6.25198 2.00611 6.25198C2.11026 6.10081 2.1733 4.22336 2.1733 4.22336C2.17481 3.8384 4.13471 2.90598 4.13471 2.90598C4.30467 2.84761 5.41049 1.36656 5.41049 1.36656C5.62824 1.05538 7.49893 1.71946 7.49893 1.71946C7.66933 1.7767 9.63697 1.04297 9.63697 1.04297L11.4421 2.58418C11.5477 2.73507 13.2386 3.37742 13.2386 3.37742C13.5886 3.49764 13.8332 5.7332 13.8332 5.7332ZM6.75967 6.75935C6.41797 7.10105 5.86395 7.10105 5.52224 6.75935C5.18053 6.41764 5.18053 5.86362 5.52224 5.52191C5.86395 5.1802 6.41797 5.1802 6.75967 5.52191C7.10138 5.86362 7.10138 6.41764 6.75967 6.75935ZM9.62496 5.5234C9.85926 5.28908 10.2392 5.28908 10.4735 5.5234C10.7078 5.75771 10.7078 6.13761 10.4735 6.37193L6.37225 10.4732C6.13793 10.7075 5.75804 10.7075 5.52372 10.4732C5.28941 10.2389 5.28941 9.85897 5.52372 9.62457L9.62496 5.5234ZM10.4706 10.4741C10.1289 10.8158 9.57494 10.8158 9.23324 10.4741C8.89144 10.1324 8.89144 9.57844 9.23324 9.23674C9.57494 8.89504 10.1289 8.89504 10.4706 9.23674C10.8123 9.57844 10.8123 10.1324 10.4706 10.4741Z" fill="#038D63"/>
</g>
</svg>
