<svg width="22" height="22" viewBox="0 0 22 22" fill="none" xmlns="http://www.w3.org/2000/svg">
<g id="Frame" clip-path="url(#clip0_13932_134)">
<path id="Vector" d="M14.3148 11.0148C15.8268 9.95644 16.8312 8.21764 16.8312 6.23044C16.8312 3.01204 14.2176 0.398438 10.9992 0.398438C7.78082 0.398438 5.16722 3.01204 5.16722 6.23044C5.16722 8.21764 6.16082 9.96724 7.68362 11.0148C3.34202 12.2892 0.199219 15.9936 0.199219 20.3676C0.199219 20.3784 0.199219 20.3784 0.199219 20.3892C0.199219 21.2856 1.04162 21.9984 2.02442 21.9984H19.974C20.9568 21.9984 21.7992 21.2856 21.7992 20.3892C21.7992 20.3784 21.7992 20.3784 21.7992 20.3676C21.7992 15.9936 18.6564 12.2892 14.3148 11.0148ZM6.85202 6.23044C6.85202 3.94084 8.70962 2.08324 10.9992 2.08324C13.2888 2.08324 15.1464 3.94084 15.1464 6.23044C15.1464 8.52004 13.2888 10.3776 10.9992 10.3776C8.70962 10.3776 6.85202 8.52004 6.85202 6.23044ZM19.974 20.3136H2.02442C1.95962 20.3136 1.91642 20.3028 1.88402 20.2812C1.93802 15.8316 6.00962 12.2244 10.9992 12.2244C15.9888 12.2244 20.0496 15.8208 20.1144 20.2812C20.082 20.3028 20.0388 20.3136 19.974 20.3136Z" fill="#333333"/>
</g>
<defs>
<clipPath id="clip0_13932_134">
<rect width="21.6" height="21.6" fill="white" transform="translate(0.199219 0.398438)"/>
</clipPath>
</defs>
</svg>
