<svg width="48" height="48" viewBox="0 0 48 48" fill="none" xmlns="http://www.w3.org/2000/svg">
<g id="Frame" clip-path="url(#clip0_9234_42309)">
<g id="Group">
<g id="Group_2">
<g id="Group_3">
<path id="Vector" d="M24 0C37.2 0 48 10.8 48 24C48 37.2 37.2 48 24 48C10.8 48 0 37.2 0 24C0 10.8 10.8 0 24 0Z" fill="white"/>
<g id="Mask Group">
<mask id="mask0_9234_42309" style="mask-type:alpha" maskUnits="userSpaceOnUse" x="0" y="0" width="48" height="48">
<path id="Vector_2" d="M24 0C37.2 0 48 10.8 48 24C48 37.2 37.2 48 24 48C10.8 48 0 37.2 0 24C0 10.8 10.8 0 24 0Z" fill="white"/>
</mask>
<g mask="url(#mask0_9234_42309)">
<g id="Group 3623">
<path id="Vector_3" d="M13.0493 15H33.4493C35.8493 15 37.7993 16.8 37.9493 19.2L39.1493 44.25C39.2993 47.1 37.0493 49.35 34.1993 49.35H12.4493C9.59927 49.35 7.34927 46.95 7.49927 44.25L8.54927 19.2C8.69927 16.95 10.6493 15 13.0493 15Z" fill="white"/>
<path id="Vector_4" d="M36.7469 20.3989C36.8969 18.7489 36.8969 19.6489 36.8969 17.9989C36.8969 17.9989 37.4969 21.4489 37.4969 18.5989C37.4969 15.1489 37.6469 19.1989 37.6469 19.6489C37.6469 18.7489 37.6469 20.5489 37.6469 19.6489C37.7969 20.5489 37.7969 21.4489 37.9469 22.3489C38.0969 25.4989 38.2469 28.7989 38.3969 31.9489C38.6969 37.3489 38.6969 38.9989 38.9969 44.3989C38.9969 44.5489 38.5469 47.5489 37.4969 48.2989C36.8969 48.5989 34.7969 49.6489 34.1969 49.6489L11.5469 48.8989C8.84687 48.8989 8.84687 45.1489 7.79688 44.9989C12.2969 45.5989 16.7969 45.7489 21.2969 45.7489C22.7969 45.7489 24.2969 45.7489 25.7969 45.5989C27.7469 45.4489 29.3969 44.9989 31.0469 43.9489C32.8469 42.5989 34.1969 40.7989 34.9469 38.6989C35.6969 36.5989 35.9969 34.1989 36.2969 31.9489C36.2969 28.0489 36.5969 24.2989 36.7469 20.3989Z" fill="#E7EEFF"/>
<path id="Vector_5" d="M33.2993 16.35C34.9493 16.35 36.2993 17.7 36.2993 19.35L37.4993 44.4C37.4993 45.45 37.1993 46.35 36.4493 46.95C35.6993 47.55 34.7993 48 33.8993 48H12.4493C11.3993 48 10.4993 47.55 9.89927 46.95C9.14927 46.2 8.84927 45.3 8.84927 44.4L9.89927 19.35C9.89927 17.7 11.2493 16.35 12.8993 16.35H33.2993ZM33.2993 15H13.0493C10.6493 15 8.69927 16.95 8.54927 19.2L7.49927 44.4C7.34927 47.1 9.59928 49.5 12.4493 49.5H34.0493C36.8993 49.5 39.1493 47.1 38.9993 44.4L37.7993 19.35C37.6493 16.95 35.6993 15 33.2993 15Z" fill="#333333"/>
<path id="Vector_6" d="M16.8031 21.45C17.5531 21.45 18.1531 20.85 18.1531 20.1C18.1531 19.35 17.5531 18.75 16.8031 18.75C16.0531 18.75 15.4531 19.35 15.4531 20.1C15.4531 20.85 16.0531 21.45 16.8031 21.45Z" fill="#D2E9FF"/>
<path id="Vector_7" d="M29.5531 21.3016C30.3031 21.3016 30.9031 20.7016 30.9031 19.9516C30.9031 19.2016 30.3031 18.6016 29.5531 18.6016C28.8031 18.6016 28.2031 19.2016 28.2031 19.9516C28.2031 20.7016 28.8031 21.3016 29.5531 21.3016Z" fill="#D2E9FF"/>
<path id="Vector (Stroke)" fill-rule="evenodd" clip-rule="evenodd" d="M23.2469 8.25C20.0611 8.25 17.5469 10.7642 17.5469 13.95V19.4996L16.0469 19.5M16.0469 19.5V13.95C16.0469 9.93579 19.2327 6.75 23.2469 6.75C27.2611 6.75 30.4469 9.93579 30.4469 13.95V19.5C30.4469 19.9142 30.1111 20.25 29.6969 20.25C29.2827 20.25 28.9469 19.9142 28.9469 19.5V13.95C28.9469 10.7642 26.4327 8.25 23.2469 8.25" fill="#333333"/>
<path id="Vector_8" d="M35.2485 35.6969C34.3485 35.2469 33.2985 35.0969 32.0985 34.9469C30.8985 34.7969 28.4985 34.7969 28.4985 34.7969C27.2985 34.7969 26.0985 34.9469 24.7485 34.9469C24.5985 34.9469 24.5985 34.9469 24.4485 34.9469C22.3485 35.0969 20.5485 33.4469 20.5485 31.3469C20.3985 29.2469 22.0485 27.4469 23.9985 27.2969C24.1485 27.2969 24.2985 27.2969 24.4485 27.2969C24.4485 27.2969 25.0485 27.2969 25.1985 27.2969C27.8985 27.4469 30.5985 27.5969 33.4485 28.3469L33.8986 28.4969C35.3986 28.9469 36.7486 29.3969 38.2486 30.4469C47.6986 36.8969 37.4986 48.4469 37.0486 48.5969C37.4986 48.2969 39.8986 42.5969 38.2486 38.5469C38.0986 38.0969 37.9486 37.7969 37.6486 37.3469H37.4986L35.2485 35.6969ZM35.2485 35.6969C36.1486 36.1469 36.8986 36.5969 37.4986 37.3469L35.2485 35.6969Z" fill="#F43397" stroke="#F43397" stroke-width="0.2511"/>
<path id="Vector_9" d="M28.1937 39.4503C28.9437 39.9003 29.8438 39.3003 29.8438 38.5503V24.0003C29.8438 23.2503 28.9437 22.6503 28.1937 23.1003V39.4503ZM28.1937 39.4503L15.5938 32.2503C14.8438 31.8003 14.8438 30.9003 15.5938 30.4503L28.1937 23.1003V39.4503Z" fill="#F43397" stroke="#F43397" stroke-width="0.2511"/>
</g>
</g>
</g>
</g>
</g>
</g>
</g>
<defs>
<clipPath id="clip0_9234_42309">
<rect width="48" height="48" fill="white"/>
</clipPath>
</defs>
</svg>
