<svg width="48" height="48" viewBox="0 0 48 48" fill="none" xmlns="http://www.w3.org/2000/svg">
<g id="Frame">
<g clip-path="url(#clip0_9234_42246)">
<rect width="48" height="48" rx="24" fill="white"/>
<g id="Group">
<g id="Group_2">
<path id="Vector" d="M37.9647 22.4573L21.499 38.923C20.3825 40.0395 18.5701 40.0395 17.4536 38.923L8.33737 29.8024C7.22088 28.6859 7.22088 26.8734 8.33737 25.757L24.7835 9.31083C25.8068 8.28755 27.1878 7.70004 28.6338 7.66969L36.9522 7.50058C38.5717 7.46807 39.8877 8.79702 39.8421 10.4143L39.6058 18.6504C39.5646 20.0834 38.9771 21.4449 37.9647 22.4573Z" fill="white"/>
</g>
<g id="Group_3">
<path id="Vector_2" d="M17.8368 35.9201C19.285 36.0523 20.6269 35.2155 21.815 34.3743C27.6143 30.2617 32.7263 25.18 36.8758 19.4046C37.7169 18.2317 38.5451 16.9634 38.6817 15.5283C38.66 15.7516 39.7375 9.7875 39.822 10.039C39.9651 10.4661 39.4383 17.5098 39.4773 17.9585C39.5402 18.6393 39.7093 19.8533 39.3342 20.4495C39.2345 20.6078 39.2063 21.2235 39.0698 21.3492C35.781 24.4256 26.3308 33.763 24.8349 35.4756C24.2409 36.1564 21.854 38.7384 21.08 39.1005C20.6204 39.3151 20.1435 39.495 19.6579 39.6381C17.9734 40.1303 17.4465 38.9574 16.5859 37.7238C15.3935 36.0155 13.9496 34.435 12.625 32.8264C12.9459 33.2166 13.5095 33.3402 13.8976 33.6394C14.2206 33.8887 14.4743 34.2247 14.7951 34.4827C15.6731 35.183 16.7008 35.8182 17.8368 35.9201Z" fill="#E7EEFF"/>
<g id="Group_4">
<g id="Group_5">
<g id="Group_6">
<g id="Group_7">
<path id="Vector_3" d="M37.0086 8.58789C37.4856 8.58789 37.93 8.7765 38.2617 9.11903C38.5934 9.46157 38.769 9.91251 38.756 10.3895L38.5197 18.6255C38.4872 19.7854 38.0167 20.8737 37.1972 21.6954L20.7316 38.161C20.3956 38.497 19.949 38.6813 19.4742 38.6813C18.9994 38.6813 18.5528 38.497 18.2168 38.161L9.10266 29.0382C8.76663 28.7022 8.58235 28.2556 8.58235 27.7808C8.58235 27.306 8.76663 26.8594 9.10266 26.5234L25.5488 10.0773C26.3791 9.24694 27.4826 8.7765 28.6555 8.75265L36.9739 8.58355L37.0086 8.58789ZM34.7149 15.3996C35.4195 15.3996 36.0807 15.1264 36.5794 14.6278C37.078 14.1292 37.3512 13.468 37.3512 12.7634C37.3512 12.0588 37.078 11.3976 36.5794 10.8989C36.0807 10.4003 35.4195 10.1271 34.7149 10.1271C34.0103 10.1271 33.3491 10.4003 32.8505 10.8989C32.3518 11.3976 32.0787 12.0588 32.0787 12.7634C32.0787 13.468 32.3518 14.1292 32.8505 14.6278C33.3491 15.1243 34.0103 15.3996 34.7149 15.3996ZM37.0086 7.50391C36.9891 7.50391 36.9696 7.50391 36.9501 7.50391L28.6338 7.67301C27.1856 7.70119 25.8068 8.29088 24.7835 9.31415L8.33737 25.7581C7.22088 26.8746 7.22088 28.687 8.33737 29.8035L17.4558 38.922C18.0151 39.4813 18.7457 39.7588 19.4785 39.7588C20.2113 39.7588 20.9419 39.4791 21.5012 38.922L37.9669 22.4563C38.9793 21.4439 39.5668 20.0824 39.6058 18.6515L39.8421 10.4155C39.8855 8.81769 38.6021 7.50391 37.0086 7.50391ZM34.7149 14.3156C34.3182 14.3156 33.9214 14.1639 33.6179 13.8604C33.0131 13.2555 33.0131 12.2712 33.6179 11.6664C33.9214 11.3629 34.3182 11.2111 34.7149 11.2111C35.1117 11.2111 35.5084 11.3629 35.8119 11.6664C36.4168 12.2712 36.4168 13.2555 35.8119 13.8604C35.5084 14.1639 35.1117 14.3156 34.7149 14.3156Z" fill="#333333"/>
</g>
</g>
<path id="Vector (Stroke)" fill-rule="evenodd" clip-rule="evenodd" d="M21.7062 16.4408C22.1981 16.3198 22.6949 16.6205 22.8159 17.1124L25.437 27.7679C25.558 28.2598 25.2573 28.7567 24.7654 28.8777C24.2735 28.9987 23.7766 28.698 23.6556 28.2061L21.0346 17.5506C20.9136 17.0587 21.2143 16.5618 21.7062 16.4408Z" fill="#F43397"/>
<g id="Group_8">
<path id="Vector_4" d="M28.0423 23.7331C28.8769 23.7331 29.5534 23.0565 29.5534 22.222C29.5534 21.3875 28.8769 20.7109 28.0423 20.7109C27.2078 20.7109 26.5312 21.3875 26.5312 22.222C26.5312 23.0565 27.2078 23.7331 28.0423 23.7331Z" fill="#F43397"/>
<path id="Vector_5" d="M28.0355 21.4707C28.4517 21.4707 28.7878 21.8089 28.7878 22.223C28.7878 22.6371 28.4496 22.9753 28.0355 22.9753C27.6214 22.9753 27.2832 22.6371 27.2832 22.223C27.2832 21.8089 27.6192 21.4707 28.0355 21.4707ZM28.0355 19.9531C26.7824 19.9531 25.7656 20.9699 25.7656 22.223C25.7656 23.4761 26.7802 24.4928 28.0355 24.4928C29.2885 24.4928 30.3053 23.4761 30.3053 22.223C30.3053 20.9699 29.2885 19.9531 28.0355 19.9531Z" fill="#F43397"/>
<path id="Vector (Stroke)_2" fill-rule="evenodd" clip-rule="evenodd" d="M28.0355 21.2414C28.5788 21.2414 29.0171 21.6827 29.0171 22.223C29.0171 22.7637 28.5762 23.2046 28.0355 23.2046C27.4948 23.2046 27.0539 22.7637 27.0539 22.223C27.0539 21.6827 27.4922 21.2414 28.0355 21.2414ZM28.0355 20.1824C26.909 20.1824 25.9949 21.0965 25.9949 22.223C25.9949 23.3496 26.907 24.2635 28.0355 24.2635C29.1619 24.2635 30.076 23.3494 30.076 22.223C30.076 21.0965 29.1619 20.1824 28.0355 20.1824ZM28.7878 22.223C28.7878 21.8089 28.4517 21.4707 28.0355 21.4707C27.6192 21.4707 27.2832 21.8089 27.2832 22.223C27.2832 22.6371 27.6214 22.9753 28.0355 22.9753C28.4496 22.9753 28.7878 22.6371 28.7878 22.223ZM25.7656 22.223C25.7656 20.9699 26.7824 19.9531 28.0355 19.9531C29.2885 19.9531 30.3053 20.9699 30.3053 22.223C30.3053 23.4761 29.2885 24.4928 28.0355 24.4928C26.7802 24.4928 25.7656 23.4761 25.7656 22.223Z" fill="#F43397"/>
</g>
<g id="Group_9">
<path id="Vector_6" d="M18.6048 25.1315C17.7702 25.1315 17.0938 24.4529 17.0938 23.6204C17.0938 22.7879 17.7723 22.1094 18.6048 22.1094C19.4395 22.1094 20.1159 22.7879 20.1159 23.6204C20.1159 24.4529 19.4395 25.1315 18.6048 25.1315Z" fill="#F43397"/>
<path id="Vector_7" d="M18.6058 22.8652C19.022 22.8652 19.3581 23.2034 19.3581 23.6175C19.3581 24.0316 19.0199 24.3698 18.6058 24.3698C18.1917 24.3698 17.8535 24.0316 17.8535 23.6175C17.8535 23.2034 18.1917 22.8652 18.6058 22.8652ZM18.6058 21.3477C17.3527 21.3477 16.3359 22.3644 16.3359 23.6175C16.3359 24.8706 17.3527 25.8874 18.6058 25.8874C19.8589 25.8874 20.8756 24.8706 20.8756 23.6175C20.8778 22.3644 19.861 21.3477 18.6058 21.3477Z" fill="#F43397"/>
<path id="Vector (Stroke)_3" fill-rule="evenodd" clip-rule="evenodd" d="M20.6463 23.6175V23.6171C20.6483 22.4912 19.7346 21.577 18.6058 21.577C17.4794 21.577 16.5652 22.4911 16.5652 23.6175C16.5652 24.7439 17.4794 25.6581 18.6058 25.6581C19.7322 25.6581 20.6463 24.7439 20.6463 23.6175ZM18.6058 22.6359C19.1491 22.6359 19.5874 23.0772 19.5874 23.6175C19.5874 24.1582 19.1465 24.5991 18.6058 24.5991C18.0651 24.5991 17.6242 24.1582 17.6242 23.6175C17.6242 23.0768 18.0651 22.6359 18.6058 22.6359ZM20.8756 23.6175C20.8756 24.8706 19.8589 25.8874 18.6058 25.8874C17.3527 25.8874 16.3359 24.8706 16.3359 23.6175C16.3359 22.3644 17.3527 21.3477 18.6058 21.3477C19.861 21.3477 20.8778 22.3644 20.8756 23.6175ZM19.3581 23.6175C19.3581 23.2034 19.022 22.8652 18.6058 22.8652C18.1917 22.8652 17.8535 23.2034 17.8535 23.6175C17.8535 24.0316 18.1917 24.3698 18.6058 24.3698C19.0199 24.3698 19.3581 24.0316 19.3581 23.6175Z" fill="#F43397"/>
</g>
<path id="Vector (Stroke)_4" fill-rule="evenodd" clip-rule="evenodd" d="M41.543 8.23367C44.1369 8.01895 46.789 8.33369 49.3987 8.79877L41.543 8.23367ZM41.4438 7.03778C44.1917 6.81027 46.9637 7.14591 49.6092 7.61738C49.9354 7.67552 50.1528 7.98712 50.0946 8.31335C50.0365 8.63958 49.7249 8.85691 49.3987 8.79877M41.4438 7.03778L41.4436 7.0378L41.4438 7.03778ZM37.8078 9.18291C36.7165 9.74237 35.8801 10.571 35.5197 11.8001C35.4264 12.1181 35.0931 12.3003 34.7751 12.207C34.4571 12.1138 34.2749 11.7804 34.3681 11.4625C34.8424 9.84502 35.9507 8.78646 37.2604 8.11505C38.5576 7.45005 40.0727 7.15176 41.4436 7.0378M37.8078 9.18291C38.9115 8.61709 40.2537 8.34087 41.5428 8.23369L37.8078 9.18291Z" fill="#333333"/>
</g>
</g>
</g>
</g>
</g>
</g>
<defs>
<clipPath id="clip0_9234_42246">
<rect width="48" height="48" rx="24" fill="white"/>
</clipPath>
</defs>
</svg>
