<svg width="79" height="48" viewBox="0 0 79 48" fill="none" xmlns="http://www.w3.org/2000/svg">
<g id="Group 3595">
<g id="Group 3590">
<g id="Group 3646">
<g id="Group 3647">
<path id="Vector" d="M26.8672 12.7729C26.8672 11.8261 27.6347 11.0586 28.5815 11.0586H47.3072C48.254 11.0586 49.0215 11.8261 49.0215 12.7729V31.4986C49.0215 32.4454 48.254 33.2129 47.3072 33.2129H28.5815C27.6347 33.2129 26.8672 32.4454 26.8672 31.4986V12.7729Z" fill="#FBD6D8"/>
</g>
<path id="Ellipse 88" d="M28.0763 10.4151C28.0763 11.5677 27.142 12.5021 25.9893 12.5021C24.8367 12.5021 23.9023 11.5677 23.9023 10.4151C23.9023 9.26251 24.8367 8.32812 25.9893 8.32812C27.142 8.32812 28.0763 9.26251 28.0763 10.4151Z" fill="#FFBEBE"/>
<path id="Ellipse 89" d="M28.0763 20.8487C28.0763 22.0013 27.142 22.9357 25.9893 22.9357C24.8367 22.9357 23.9023 22.0013 23.9023 20.8487C23.9023 19.6961 24.8367 18.7617 25.9893 18.7617C27.142 18.7617 28.0763 19.6961 28.0763 20.8487Z" fill="#FFBEBE"/>
</g>
</g>
<g id="Group 3594">
<g id="Group 3591">
<g id="Group 3666">
<path id="Vector_2" d="M78.4326 25.0303V4.55647C78.4326 2.04001 76.3918 0.000193648 73.8754 0.000567611C72.9809 0.00070053 72.1481 0.000795195 71.5903 0.000795195C69.7182 0.000795195 47.4661 0.000795195 47.4661 0.000795195C46.5918 0.000795195 44.4296 0.000410345 42.3731 9.26406e-08C39.8567 -0.000501921 37.8164 2.03934 37.8164 4.55582L37.8164 43.4442C37.8164 45.9603 39.8549 48 42.371 48C43.5396 48 44.8685 48 46.2781 48C49.7578 48 65.8704 48 73.8831 48C76.3992 48 78.4326 45.9603 78.4326 43.4442V25.0303Z" fill="white"/>
<path id="Vector_3" d="M45.207 7.25338C45.207 6.30659 45.9746 5.53906 46.9214 5.53906H69.3394C70.2862 5.53906 71.0537 6.30659 71.0537 7.25338V29.6714C71.0537 30.6182 70.2862 31.3857 69.3394 31.3857H46.9214C45.9746 31.3857 45.207 30.6182 45.207 29.6714V7.25338Z" fill="#FBD6D8"/>
<path id="Vector_4" d="M47.0469 36.4628C47.0469 35.6981 47.6668 35.0781 48.4315 35.0781H67.8165C68.5812 35.0781 69.2012 35.6981 69.2012 36.4628C69.2012 37.2275 68.5812 37.8474 67.8165 37.8474H48.4315C47.6668 37.8474 47.0469 37.2275 47.0469 36.4628Z" fill="#FBD6D8"/>
<path id="Vector_5" d="M52.5859 41.5325C52.5859 41.0227 52.9992 40.6094 53.509 40.6094H62.74C63.2498 40.6094 63.6631 41.0227 63.6631 41.5325C63.6631 42.0423 63.2498 42.4556 62.74 42.4556H53.509C52.9992 42.4556 52.5859 42.0423 52.5859 41.5325Z" fill="#FBD6D8"/>
<path id="Vector_6" d="M32.7484 5.53906C28.0354 5.53906 24.9655 8.04909 23.0514 10.6133C21.1373 8.04909 18.0675 5.53906 13.3544 5.53906C6.36603 5.53906 0.894531 11.3175 0.894531 18.7212C0.894531 28.1474 10.0498 34.0523 21.2456 43.6409C21.7693 44.0924 22.4013 44.3091 23.0514 44.3091C23.7015 44.3091 24.3335 44.0924 24.8572 43.6409C36.6489 33.5286 45.2083 28.0029 45.2083 18.7212C45.2083 11.3175 39.7368 5.53906 32.7484 5.53906Z" fill="#FB4B4B"/>
<path id="Vector (Stroke)" fill-rule="evenodd" clip-rule="evenodd" d="M23.0514 14.0523L21.4029 11.8439C19.7371 9.61235 17.2154 7.59625 13.3544 7.59625C7.60886 7.59625 2.95172 12.344 2.95172 18.7212C2.95172 22.6701 4.83354 26.016 8.35773 29.6976C10.8404 32.2912 13.942 34.8634 17.5126 37.8246C19.1133 39.1521 20.8082 40.5577 22.5838 42.0785L22.5889 42.0828C22.7225 42.198 22.8721 42.2519 23.0514 42.2519C23.2307 42.2519 23.3803 42.198 23.514 42.0828L23.518 42.0793C25.3338 40.5222 27.0472 39.0936 28.6512 37.7561C32.3721 34.6536 35.5048 32.0416 37.9629 29.453C41.398 25.8355 43.1511 22.6172 43.1511 18.7212C43.1511 12.344 38.494 7.59625 32.7484 7.59625C28.8874 7.59625 26.3657 9.61235 24.6999 11.8439L23.0514 14.0523ZM21.6807 9.02036C19.7686 7.10155 17.0729 5.53906 13.3544 5.53906C6.36603 5.53906 0.894531 11.3175 0.894531 18.7212C0.894531 26.7152 7.47912 32.1766 16.3087 39.5002C17.8906 40.8122 19.5446 42.1841 21.2456 43.6409C21.7693 44.0924 22.4013 44.3091 23.0514 44.3091C23.7015 44.3091 24.3335 44.0924 24.8572 43.6409M24.4221 9.02036C23.9107 9.53354 23.4553 10.0722 23.0514 10.6133C22.6475 10.0722 22.1921 9.53354 21.6807 9.02036" fill="#FFBEBE"/>
</g>
</g>
</g>
</g>
</svg>
