<svg width="133" height="48" viewBox="0 0 133 48" fill="none" xmlns="http://www.w3.org/2000/svg">
<g id="Group 3531">
<g id="Frame 61">
<path id="Rectangle 657" d="M22.8984 11.8114C22.8984 9.91783 24.4335 8.38281 26.327 8.38281H128.91C130.803 8.38281 132.338 9.91784 132.338 11.8114V36.1542C132.338 38.0478 130.803 39.5828 128.91 39.5828H26.327C24.4335 39.5828 22.8984 38.0478 22.8984 36.1542V11.8114Z" fill="white"/>
<g id="Meesho Safe Copy">
<path d="M58.4342 14.4023H45.9219V16.8765H50.8467V30.897H53.533V16.8765H58.4342V14.4023Z" fill="#F43397"/>
<path d="M58.3993 19.7513V30.897H60.9441V25.6894C60.9441 23.0738 62.193 22.0134 63.8896 22.0134C64.1959 22.0134 64.5258 22.0606 64.7379 22.1548V19.6806C64.5494 19.5864 64.2431 19.5157 63.866 19.5157C62.5465 19.5157 61.3919 20.2697 60.8263 21.5422H60.7792V19.7513H58.3993Z" fill="#F43397"/>
<path d="M76.4668 30.897V19.7513H73.8983V26.1607C73.8983 27.8337 72.7437 29.0119 71.2827 29.0119C69.9396 29.0119 69.162 28.0929 69.162 26.3727V19.7513H66.6171V26.8911C66.6171 29.601 68.1252 31.2504 70.5287 31.2504C72.1075 31.2504 73.3799 30.4964 73.9926 29.4125H74.1104V30.897H76.4668Z" fill="#F43397"/>
<path d="M83.7253 31.2504C86.3645 31.2504 88.1553 29.8366 88.1553 27.5745C88.1553 23.1209 82.0523 25.1003 82.0523 22.6497C82.0523 21.9192 82.6178 21.3301 83.7253 21.3301C84.7386 21.3301 85.5633 21.9192 85.6811 22.7439L88.0611 22.2491C87.6605 20.5525 85.9168 19.3979 83.6546 19.3979C81.1804 19.3979 79.5074 20.7646 79.5074 22.8382C79.5074 27.2917 85.6104 25.3124 85.6104 27.763C85.6104 28.7055 84.9742 29.3418 83.796 29.3418C82.6414 29.3418 81.6988 28.7291 81.4161 27.7394L79.0833 28.2107C79.6252 30.1194 81.3454 31.2504 83.7253 31.2504Z" fill="#F43397"/>
<path d="M95.3222 31.1326C96.1469 31.1326 96.8538 30.9912 97.2309 30.8027L96.9481 28.7527C96.6889 28.8941 96.3119 28.9883 95.817 28.9883C94.6153 28.9883 94.0262 28.4463 94.0262 26.7969V21.9192H97.113V19.7513H94.0262V16.1932L91.4577 16.688V19.7513H89.4313V21.9192H91.4577V27.221C91.4577 30.1194 93.0365 31.1326 95.3222 31.1326Z" fill="#F43397"/>
<path d="M109.098 28.1871L106.954 27.5509C106.459 28.5642 105.54 29.1297 104.338 29.1297C102.548 29.1297 101.322 27.8573 101.087 25.9957H109.546V25.3595C109.499 21.5186 107.072 19.3979 104.032 19.3979C100.757 19.3979 98.4947 21.9663 98.4947 25.3595C98.4947 28.7291 100.875 31.2504 104.315 31.2504C106.553 31.2504 108.179 30.1901 109.098 28.1871ZM104.079 21.3772C105.517 21.3772 106.766 22.2726 106.883 24.252H101.11C101.393 22.414 102.453 21.3772 104.079 21.3772Z" fill="#F43397"/>
<path d="M111.388 25.3359C111.388 28.8469 113.603 31.2504 116.595 31.2504C118.08 31.2504 119.564 30.6378 120.295 29.2004H120.366V30.897H122.722V14.4023H120.153V21.1887C119.564 20.1519 118.315 19.3979 116.642 19.3979C113.65 19.3979 111.388 21.7778 111.388 25.3359ZM113.956 25.3359C113.956 23.2388 115.158 21.6364 117.114 21.6364C119.046 21.6364 120.224 23.1681 120.224 25.3359C120.224 27.4802 119.046 28.9883 117.114 28.9883C115.205 28.9883 113.956 27.4331 113.956 25.3359Z" fill="#F43397"/>
</g>
<g id="Group 3530">
<path id="Combined Shape" d="M38.7292 7.77243L20.7946 0.143332C20.3453 -0.0477305 19.8403 -0.0478242 19.3911 0.143332L1.45645 7.77243C0.77338 8.06306 0.328125 8.74631 0.328125 9.50409V24.7686C0.328125 37.5385 7.8615 43.0352 19.4012 47.861C19.8445 48.0463 20.3411 48.0463 20.7844 47.861C32.324 43.0353 39.8575 37.5386 39.8575 24.7686V9.50409C39.8575 8.74631 39.4124 8.06306 38.7292 7.77243Z" fill="#F7A8CA"/>
<path id="Combined Shape_2" d="M36.9302 9.34823L20.7315 2.45758C20.3257 2.28501 19.8696 2.28493 19.4639 2.45758L3.2652 9.34823C2.64825 9.61072 2.24609 10.2278 2.24609 10.9123V24.6992C2.24609 36.2331 9.05028 41.1977 19.473 45.5564C19.8734 45.7238 20.3219 45.7238 20.7223 45.5564C31.1449 41.1978 37.9493 36.2332 37.9493 24.6992V10.9123C37.9493 10.2278 37.5472 9.61072 36.9302 9.34823Z" fill="#F43397"/>
<path id="XMLID 41  path Copy 4" d="M25.1707 15.4932C27.1014 15.5079 28.7284 16.1636 30.0675 17.4529C31.4221 18.7496 32.0916 20.2967 32.076 22.1238L32.0215 30.7142C32.0138 31.7382 31.134 32.5634 30.0441 32.5634C28.962 32.556 28.0901 31.7235 28.0979 30.6994L28.1523 22.1091C28.1601 21.3134 27.8799 20.6356 27.2726 20.0683C26.7043 19.5084 25.9881 19.2284 25.1473 19.2284C24.2909 19.2211 23.5436 19.5158 22.9363 20.1199C22.3836 20.6651 22.1111 21.4166 22.1033 22.1754L22.0566 30.6405C22.0488 31.6793 21.1535 32.5192 20.0558 32.5118C18.9581 32.5045 18.0706 31.6572 18.0784 30.6184L18.1329 22.1017C18.1407 21.3576 17.8682 20.6209 17.3311 20.0757C16.7316 19.4716 15.9998 19.1769 15.1279 19.1695C14.3027 19.1621 13.602 19.4274 12.987 19.9873C12.4109 20.5398 12.0995 21.2176 12.0995 22.0133L12.045 30.5963C12.0372 31.6277 11.1497 32.4602 10.0598 32.4529C8.96987 32.4455 8.09794 31.6056 8.10552 30.5742L8.16022 22.0207C8.168 20.4367 8.75967 18.8822 9.87294 17.7034C11.3132 16.1857 13.0882 15.4269 15.1512 15.4416C17.1209 15.4564 18.8024 16.1268 20.1493 17.4897C21.535 16.1342 23.201 15.4858 25.1707 15.4932Z" fill="white"/>
</g>
</g>
</g>
</svg>
