<svg width="180" height="48" viewBox="0 0 180 48" fill="none" xmlns="http://www.w3.org/2000/svg">
<g id="Primary CTA - Web">
<rect width="180" height="48" rx="4" fill="black"/>
<g id="g12">
<path id="path20" d="M69.3912 13.5678C69.3912 14.4267 69.1369 15.1107 68.6274 15.621C68.0488 16.2277 67.2947 16.5312 66.3676 16.5312C65.4797 16.5312 64.7249 16.2237 64.1041 15.6077C63.4822 14.9922 63.1719 14.2289 63.1719 13.3182C63.1719 12.4071 63.4822 11.6443 64.1041 11.0283C64.7249 10.4128 65.4797 10.1048 66.3676 10.1048C66.8081 10.1048 67.2299 10.1909 67.6303 10.3628C68.0308 10.535 68.352 10.7636 68.5923 11.05L68.0516 11.591C67.6444 11.1044 67.0837 10.8613 66.3676 10.8613C65.72 10.8613 65.1602 11.0888 64.6876 11.5441C64.215 11.9999 63.9788 12.591 63.9788 13.3182C63.9788 14.0455 64.215 14.6366 64.6876 15.0924C65.1602 15.5477 65.72 15.7752 66.3676 15.7752C67.0544 15.7752 67.6271 15.5464 68.0856 15.0884C68.3832 14.7899 68.5554 14.3751 68.6014 13.8424H66.3676V13.1036H69.3484C69.3772 13.2642 69.3912 13.4184 69.3912 13.5678Z" fill="white"/>
<path id="path22" d="M69.3844 13.5668H69.2818C69.281 14.4062 69.0359 15.0581 68.5481 15.5475L68.547 15.5483L68.5466 15.5492C67.9863 16.135 67.2662 16.4265 66.3607 16.4278C65.4966 16.4265 64.7733 16.1318 64.1693 15.5343C63.5667 14.9356 63.2687 14.2047 63.2675 13.3173C63.2687 12.4294 63.5667 11.699 64.1693 11.1007C64.7733 10.5028 65.4966 10.2076 66.3607 10.2064C66.788 10.2064 67.1949 10.2897 67.583 10.4559C67.9714 10.6233 68.2783 10.8427 68.5069 11.1151L68.5854 11.049L68.5129 10.9765L67.9722 11.5179L68.0447 11.59L68.1237 11.5244C67.6975 11.0137 67.0993 10.7563 66.3607 10.7578C65.6892 10.757 65.0985 10.9969 64.6098 11.4695C64.1165 11.9437 63.8686 12.568 63.8694 13.3173C63.8686 14.0666 64.1165 14.6909 64.6098 15.165C65.0985 15.6376 65.6892 15.8775 66.3607 15.8767C67.0704 15.8779 67.6751 15.6372 68.1512 15.1599C68.4693 14.841 68.6495 14.3994 68.6968 13.8503L68.7063 13.7389H66.4632V13.2051H69.3415V13.1026L69.2405 13.1206C69.2686 13.2761 69.2818 13.4238 69.2818 13.5668H69.3844H69.4869C69.4869 13.411 69.4724 13.2508 69.4424 13.0842L69.4272 13.0001H66.2582V13.8415V13.944H68.5945V13.8415L68.4924 13.8327C68.4472 14.3485 68.283 14.737 68.0063 15.0149C67.5657 15.4538 67.0251 15.6704 66.3607 15.6717C65.7372 15.6709 65.2082 15.4562 64.752 15.0177C64.3003 14.5807 64.0756 14.0229 64.0745 13.3173C64.0756 12.6116 64.3003 12.0538 64.752 11.6169C65.2082 11.1784 65.7372 10.9637 66.3607 10.9629C67.054 10.9645 67.5774 11.1936 67.9663 11.6561L68.0384 11.7418L68.6579 11.1215L68.7243 11.055L68.6638 10.9833C68.412 10.683 68.0764 10.4446 67.6639 10.2677C67.2506 10.0902 66.8145 10.0013 66.3607 10.0013C65.4493 10.0005 64.6628 10.3209 64.0248 10.9549C63.3844 11.5876 63.0617 12.383 63.0625 13.3173C63.0617 14.2511 63.3844 15.0469 64.0252 15.6801C64.6627 16.3137 65.4493 16.6336 66.3607 16.6328C67.3098 16.6336 68.0972 16.3184 68.6947 15.6908L68.6206 15.62L68.6931 15.6925C69.2241 15.1618 69.4876 14.445 69.4869 13.5668H69.3844Z" fill="white"/>
<path id="path24" d="M74.1144 10.995H71.3132V12.9454H73.8394V13.6846H71.3132V15.6349H74.1144V16.3906H70.5234V10.2394H74.1144V10.995Z" fill="white"/>
<path id="path26" d="M74.1154 10.998V10.8955H71.2116V13.0509H73.7378V13.5847L71.2116 13.585V15.7404H74.0129V16.2911H70.6269V10.3448H74.0129V10.998H74.1154V10.8955V10.998H74.2179V10.2423V10.1398H70.4219V16.4961H74.2179V15.6379V15.5354H71.4166V13.79H73.9429V12.9483V12.8458H71.4166V11.1005H74.2179V10.998H74.1154Z" fill="white"/>
<path id="path28" d="M77.4465 16.3906H76.6555V10.995H74.9375V10.2394H79.1646V10.995H77.4465V16.3906Z" fill="white"/>
<path id="path30" d="M77.4475 16.3897V16.2871H76.759V10.8916H75.041V10.3409H79.063V10.8916H77.3449V16.3897H77.4475V16.2871V16.3897H77.55V11.0966H79.268V10.2384V10.1359H74.8359V10.9941V11.0966H76.554V16.4922H77.4475H77.55V16.3897H77.4475Z" fill="white"/>
<path id="path32" d="M82.2188 16.3906V10.2394H83.0089V16.3906H82.2188Z" fill="white"/>
<path id="path34" d="M82.2275 16.3897H82.33V10.3409H82.9151V16.2871H82.2275V16.3897H82.33H82.2275V16.4922H83.0176H83.1202V10.1359H82.2275H82.125V16.4922H82.2275V16.3897Z" fill="white"/>
<path id="path36" d="M86.5245 16.3906H85.7336V10.995H84.0156V10.2394H88.2426V10.995H86.5245V16.3906Z" fill="white"/>
<path id="path38" d="M86.5177 16.3936V16.2911H85.8292V10.8955H84.1113V10.3448H88.1332V10.8955H86.4151V16.3936H86.5177V16.2911V16.3936H86.6202V11.1005H88.3382V10.2423V10.1398H83.9062V10.998V11.1005H85.6242V16.4961H86.5177H86.6202V16.3936H86.5177Z" fill="white"/>
<path id="path40" d="M92.31 15.084C92.7653 15.5449 93.3224 15.7752 93.9812 15.7752C94.64 15.7752 95.1974 15.5449 95.652 15.084C96.1077 14.623 96.336 14.0338 96.336 13.3182C96.336 12.6026 96.1077 12.0135 95.652 11.5525C95.1974 11.0916 94.64 10.8613 93.9812 10.8613C93.3224 10.8613 92.7653 11.0916 92.31 11.5525C91.8555 12.0135 91.6273 12.6026 91.6273 13.3182C91.6273 14.0338 91.8555 14.623 92.31 15.084ZM96.2367 15.5989C95.6319 16.2208 94.8798 16.5312 93.9812 16.5312C93.0817 16.5312 92.33 16.2208 91.7266 15.5989C91.1214 14.9777 90.8203 14.2173 90.8203 13.3182C90.8203 12.4191 91.1214 11.6586 91.7266 11.0376C92.33 10.4156 93.0817 10.1048 93.9812 10.1048C94.8751 10.1048 95.6252 10.4172 96.2327 11.0416C96.8394 11.6659 97.143 12.4248 97.143 13.3182C97.143 14.2173 96.8401 14.9777 96.2367 15.5989Z" fill="white"/>
<path id="path42" d="M92.311 15.083L92.2381 15.1551C92.7103 15.6345 93.2994 15.8779 93.9822 15.8767C94.6646 15.8779 95.2545 15.6345 95.7259 15.1551C96.2012 14.6753 96.4402 14.0545 96.4395 13.3173C96.4402 12.58 96.2012 11.9593 95.7259 11.4795C95.2545 11.0001 94.6646 10.7566 93.9822 10.7578C93.2994 10.7566 92.7103 11.0001 92.2381 11.4795C91.7639 11.9593 91.5245 12.58 91.5257 13.3173C91.5245 14.0545 91.7639 14.6753 92.2381 15.1551L92.311 15.083L92.3839 15.0109C91.949 14.5683 91.7316 14.0117 91.7307 13.3173C91.7316 12.6229 91.949 12.0662 92.3839 11.6236C92.8228 11.1811 93.347 10.9641 93.9822 10.9629C94.6169 10.9641 95.1423 11.1811 95.5801 11.6236C96.0158 12.0662 96.2333 12.6229 96.2341 13.3173C96.2333 14.0117 96.0158 14.5683 95.5801 15.0109C95.1423 15.4534 94.6169 15.6704 93.9822 15.6717C93.347 15.6704 92.8228 15.4534 92.3839 15.0109L92.311 15.083ZM96.2377 15.598L96.1644 15.5267C95.5765 16.129 94.8576 16.4265 93.9822 16.4278C93.1064 16.4265 92.3875 16.129 91.8008 15.5267L91.798 15.5235L91.8008 15.5267C91.2141 14.9223 90.9246 14.1935 90.9238 13.3173C90.9246 12.441 91.2141 11.7122 91.8008 11.1078C92.3875 10.5055 93.1064 10.2076 93.9822 10.2064C94.852 10.2076 95.5692 10.5068 96.1604 11.1123C96.749 11.7194 97.0402 12.4471 97.0414 13.3173C97.0402 14.1935 96.7499 14.9223 96.1644 15.5267L96.2377 15.598L96.3114 15.6692C96.9329 15.0309 97.2472 14.2391 97.2465 13.3173C97.2472 12.4006 96.9316 11.6105 96.3073 10.9693C95.6826 10.3257 94.9001 10.0002 93.9822 10.0013C93.0595 10.0002 92.2746 10.3242 91.6538 10.9653V10.9649C91.0311 11.6036 90.7179 12.3954 90.7188 13.3173C90.7179 14.2391 91.0311 15.0309 91.6538 15.6696L91.6566 15.6725L91.6538 15.6692C92.2746 16.3104 93.0595 16.6336 93.9822 16.6328C94.9045 16.6336 95.6894 16.3104 96.3114 15.6692L96.2377 15.598Z" fill="white"/>
<path id="path44" d="M98.2578 16.3906V10.2394H99.2198L102.209 15.0246H102.243L102.209 13.8392V10.2394H103V16.3906H102.175L99.0475 11.3734H99.0135L99.0475 12.5593V16.3906H98.2578Z" fill="white"/>
<path id="path46" d="M98.2588 16.3897H98.3613V10.3409H99.1638L102.153 15.1262H102.244H102.35L102.313 13.8367V10.3409H102.899V16.2871H102.233L99.1054 11.27H99.0145H98.9092L98.946 12.56V16.2871H98.2588V16.3897H98.3613H98.2588V16.4922H99.0485H99.151V12.5567L99.117 11.3697L99.0145 11.3725V11.475H99.0485V11.3725L98.9616 11.427L102.119 16.4922H103.001H103.104V10.1359H102.21H102.108V13.8395L102.142 15.0264L102.244 15.0237V14.9212H102.21V15.0237L102.297 14.9692L99.2775 10.1359H98.2588H98.1562V16.4922H98.2588V16.3897Z" fill="white"/>
<path id="path48" d="M130.407 33.821H132.32V21.0047H130.407V33.821ZM147.638 25.6214L145.445 31.1779H145.379L143.103 25.6214H141.043L144.456 33.3877L142.51 37.7076H144.506L149.765 25.6214H147.638ZM136.789 32.3653C136.162 32.3653 135.288 32.0521 135.288 31.2769C135.288 30.2876 136.377 29.9084 137.316 29.9084C138.158 29.9084 138.552 30.0898 139.064 30.3374C138.915 31.5244 137.893 32.3653 136.789 32.3653ZM137.02 25.341C135.635 25.341 134.2 25.9513 133.607 27.3034L135.304 28.0122C135.667 27.3034 136.343 27.0723 137.052 27.0723C138.042 27.0723 139.048 27.6662 139.064 28.7214V28.8532C138.717 28.6553 137.976 28.3586 137.069 28.3586C135.239 28.3586 133.375 29.3641 133.375 31.244C133.375 32.9588 134.876 34.0637 136.557 34.0637C137.844 34.0637 138.552 33.4866 138.998 32.8107H139.064V33.7998H140.91V28.886C140.91 26.6109 139.213 25.341 137.02 25.341ZM125.197 27.1816H122.476V22.7884H125.197C126.627 22.7884 127.439 23.9725 127.439 24.9849C127.439 25.9782 126.627 27.1816 125.197 27.1816ZM125.148 21.0047H120.564V33.821H122.476V28.9653H125.148C127.268 28.9653 129.352 27.4303 129.352 24.9849C129.352 22.5397 127.268 21.0047 125.148 21.0047ZM100.152 32.3677C98.8304 32.3677 97.7239 31.2612 97.7239 29.7414C97.7239 28.2056 98.8304 27.0823 100.152 27.0823C101.457 27.0823 102.481 28.2056 102.481 29.7414C102.481 31.2612 101.457 32.3677 100.152 32.3677ZM102.349 26.339H102.283C101.853 25.8271 101.027 25.3647 99.9867 25.3647C97.8064 25.3647 95.8081 27.2805 95.8081 29.7414C95.8081 32.1859 97.8064 34.0853 99.9867 34.0853C101.027 34.0853 101.853 33.6228 102.283 33.0946H102.349V33.7221C102.349 35.3905 101.457 36.2824 100.02 36.2824C98.8472 36.2824 98.1205 35.4397 97.8229 34.7297L96.1549 35.4233C96.6339 36.5795 97.9058 38 100.02 38C102.266 38 104.166 36.6784 104.166 33.4578V25.629H102.349V26.339ZM105.487 33.821H107.403V21.0042H105.487V33.821ZM110.227 29.5929C110.177 27.908 111.532 27.0494 112.506 27.0494C113.267 27.0494 113.91 27.429 114.125 27.9746L110.227 29.5929ZM116.173 28.1395C115.81 27.1647 114.703 25.3647 112.44 25.3647C110.194 25.3647 108.328 27.1319 108.328 29.725C108.328 32.1695 110.177 34.0853 112.655 34.0853C114.654 34.0853 115.81 32.8631 116.289 32.153L114.802 31.1618C114.307 31.8887 113.629 32.3677 112.655 32.3677C111.68 32.3677 110.987 31.9216 110.541 31.0465L116.371 28.6349L116.173 28.1395ZM69.7225 26.7026V28.5524H74.1489C74.0167 29.5929 73.6699 30.3525 73.1413 30.8811C72.4974 31.5255 71.4898 32.2355 69.7225 32.2355C66.9972 32.2355 64.8667 30.0389 64.8667 27.3137C64.8667 24.5885 66.9972 22.3916 69.7225 22.3916C71.1926 22.3916 72.2659 22.9698 73.0588 23.7131L74.3636 22.4084C73.257 21.3511 71.7869 20.5418 69.7225 20.5418C65.9896 20.5418 62.8516 23.5809 62.8516 27.3137C62.8516 31.0465 65.9896 34.0853 69.7225 34.0853C71.7377 34.0853 73.257 33.425 74.4461 32.1859C75.6683 30.9637 76.0484 29.246 76.0484 27.8588C76.0484 27.429 76.0155 27.033 75.949 26.7026H69.7225ZM81.0807 32.3677C79.7591 32.3677 78.6194 31.2776 78.6194 29.725C78.6194 28.1559 79.7591 27.0823 81.0807 27.0823C82.4018 27.0823 83.5416 28.1559 83.5416 29.725C83.5416 31.2776 82.4018 32.3677 81.0807 32.3677ZM81.0807 25.3647C78.669 25.3647 76.7035 27.198 76.7035 29.725C76.7035 32.2355 78.669 34.0853 81.0807 34.0853C83.4919 34.0853 85.4575 32.2355 85.4575 29.725C85.4575 27.198 83.4919 25.3647 81.0807 25.3647ZM90.6287 32.3677C89.3077 32.3677 88.1678 31.2776 88.1678 29.725C88.1678 28.1559 89.3077 27.0823 90.6287 27.0823C91.9499 27.0823 93.0897 28.1559 93.0897 29.725C93.0897 31.2776 91.9499 32.3677 90.6287 32.3677ZM90.6287 25.3647C88.2171 25.3647 86.252 27.198 86.252 29.725C86.252 32.2355 88.2171 34.0853 90.6287 34.0853C93.04 34.0853 95.0056 32.2355 95.0056 29.725C95.0056 27.198 93.04 25.3647 90.6287 25.3647Z" fill="white"/>
<g id="g50">
<g id="g52">
<path id="path72" d="M31.5506 36.2695L31.4745 36.1966C31.1761 35.881 31 35.3908 31 34.7561V34.9055V12.2319C31 12.2299 31 12.2283 31 12.2267C31 12.2286 31 12.2303 31 12.2323V12.3821C31 11.6948 31.2053 11.1771 31.5494 10.8666L44.2516 23.5685L31.5506 36.2695ZM31 12.2255C31 12.169 31.0015 12.1141 31.0044 12.0601C31.0015 12.1137 31 12.169 31 12.2255ZM31.0044 12.0576C31.0044 12.0569 31.0044 12.0561 31.0047 12.0553C31.0044 12.0561 31.0044 12.0569 31.0044 12.0576ZM31.0047 12.0505C31.0047 12.05 31.0047 12.0496 31.0047 12.0492C31.0047 12.0496 31.0047 12.05 31.0047 12.0505Z" fill="url(#paint0_linear_9234_41767)"/>
</g>
</g>
<g id="g74">
<g id="g76">
<path id="path92" d="M48.4834 27.9531L48.58 27.8983L53.5962 25.0481C54.0745 24.7762 54.3932 24.4466 54.5522 24.0978C54.3936 24.4466 54.0748 24.7766 53.5962 25.0485L48.58 27.8987L48.4834 27.9531ZM48.4846 27.8029L44.25 23.5676L48.4842 19.3329L53.5962 22.2372C54.2454 22.606 54.6099 23.0814 54.6708 23.5672C54.6708 23.5676 54.6708 23.5684 54.6708 23.5691C54.6099 24.0537 54.2454 24.5295 53.5962 24.8983L48.4846 27.8029Z" fill="url(#paint1_linear_9234_41767)"/>
</g>
</g>
<g id="g94">
<g id="g96">
<path id="path108" d="M32.4556 36.7539C32.1008 36.7539 31.7912 36.6386 31.5498 36.4207L31.5502 36.4203C31.7916 36.6382 32.1016 36.7539 32.4565 36.7539C32.4872 36.7539 32.5185 36.7531 32.5502 36.7515C32.5181 36.7531 32.4864 36.7539 32.4556 36.7539ZM32.4561 36.6037C32.1012 36.6041 31.7916 36.4884 31.5502 36.2705V36.2702L44.2511 23.5692L48.4858 27.8045L33.6046 36.2598C33.1929 36.4932 32.8028 36.6037 32.4561 36.6037ZM31.5466 36.4179C31.5241 36.3975 31.5021 36.3759 31.4805 36.3535L31.5466 36.4179Z" fill="url(#paint2_linear_9234_41767)"/>
</g>
</g>
<g id="g110">
<g id="g112">
<path id="path130" d="M44.2529 23.5703L31.5508 10.8685C31.7922 10.651 32.1014 10.5357 32.4558 10.5357C32.8035 10.5357 33.1939 10.6466 33.6064 10.8805L48.4872 19.3357L44.2529 23.5703ZM48.5829 19.24L33.6064 10.7308C33.1939 10.4968 32.8035 10.3859 32.4558 10.3859C32.4542 10.3859 32.4531 10.3859 32.4514 10.3859C32.4535 10.3859 32.455 10.3859 32.4575 10.3859C32.8043 10.3859 33.1943 10.4964 33.6064 10.7304L48.5829 19.24Z" fill="url(#paint3_linear_9234_41767)"/>
</g>
</g>
<path id="path132" d="M32.5488 36.75C32.8711 36.7315 33.228 36.6206 33.6033 36.408L48.4832 27.9532L33.6033 36.408C33.2283 36.621 32.8711 36.7315 32.5488 36.75ZM31.5484 36.4192L31.5452 36.4164C31.5464 36.4172 31.5476 36.4183 31.5484 36.4192ZM31.4791 36.3519L31.4727 36.3456V36.3451C31.4751 36.3475 31.4771 36.3499 31.4791 36.3519Z" fill="black"/>
<g id="g134">
<g id="g136">
<path id="path152" d="M48.4844 27.957L48.5804 27.9025L48.4844 27.957Z" fill="url(#paint4_linear_9234_41767)"/>
</g>
</g>
<g id="g154">
<g id="g156">
<path id="path168" d="M32.4551 36.7578C32.1003 36.7578 31.7903 36.6421 31.5488 36.4242L31.5484 36.4246C31.5476 36.4238 31.5464 36.4227 31.5452 36.4218L31.4791 36.3574C31.4771 36.3553 31.4751 36.353 31.4727 36.3506L31.5488 36.2744C31.7903 36.4923 32.0999 36.608 32.4547 36.6076C32.8014 36.6076 33.1915 36.4971 33.6033 36.2637L48.4844 27.8084L48.5797 27.9038L48.4832 27.9586L33.6033 36.4134C33.228 36.6261 32.8711 36.737 32.5488 36.7555C32.5171 36.757 32.4859 36.7578 32.4551 36.7578Z" fill="url(#paint5_linear_9234_41767)"/>
</g>
</g>
<path id="path170" d="M31.4745 36.3477C31.1761 36.032 31 35.5418 31 34.9071V34.9067C31 35.5418 31.1761 36.0316 31.4745 36.3472V36.3477Z" fill="black"/>
<g id="g172">
<g id="g174">
<path id="path194" d="M31.4745 36.3477C31.1761 36.032 31 35.5422 31 34.9071V34.7578C31 35.3925 31.1761 35.8826 31.4745 36.1983L31.5506 36.2712L31.4745 36.3477Z" fill="url(#paint6_linear_9234_41767)"/>
</g>
</g>
<g id="g196">
<g id="g198">
<path id="path210" d="M31.4727 36.3438L31.5484 36.2677V36.268L31.4727 36.3438Z" fill="url(#paint7_linear_9234_41767)"/>
</g>
</g>
<path id="path212" d="M54.5547 24.1016C54.6335 23.9285 54.6732 23.7507 54.6732 23.5729C54.6732 23.5726 54.6732 23.5721 54.6732 23.5721C54.6732 23.7503 54.6335 23.9281 54.5547 24.1016Z" fill="black"/>
<g id="g214">
<g id="g216">
<path id="path232" d="M48.5797 27.8984L48.4844 27.8031L53.596 24.8985C54.2451 24.5297 54.6096 24.0539 54.6705 23.5693C54.6705 23.7472 54.6308 23.9249 54.552 24.098C54.393 24.4468 54.0742 24.7764 53.596 25.0482L48.5797 27.8984Z" fill="url(#paint8_linear_9234_41767)"/>
</g>
</g>
<path id="path234" d="M54.6693 23.5703V23.5699C54.6689 23.0336 54.3105 22.4974 53.5948 22.0905L48.5785 19.2403H48.5781L48.5785 19.24L53.5948 22.0901C54.3113 22.497 54.6701 23.034 54.6693 23.5703Z" fill="black"/>
<g id="g236">
<g id="g238">
<path id="path254" d="M54.6709 23.5703C54.61 23.0846 54.2456 22.6092 53.5964 22.2403L48.4844 19.3361L48.5797 19.2407H48.5801L53.5964 22.0909C54.3121 22.4978 54.6705 23.034 54.6709 23.5703Z" fill="url(#paint9_linear_9234_41767)"/>
</g>
</g>
<path id="path256" d="M31 12.2266C31 12.2262 31 12.2257 31 12.2253C31 12.2257 31 12.2262 31 12.2266ZM31.0044 12.06C31.0044 12.0591 31.0044 12.0583 31.0044 12.0575C31.0044 12.0583 31.0044 12.0591 31.0044 12.06ZM31.0047 12.0551C31.0047 12.0535 31.0047 12.052 31.0047 12.0503C31.0047 12.052 31.0047 12.0535 31.0047 12.0551ZM31.0047 12.0491C31.0641 10.9959 31.6368 10.3875 32.4469 10.384C32.0956 10.386 31.7897 10.5013 31.5502 10.7171V10.7167L31.5474 10.7196C31.5221 10.7424 31.4981 10.7665 31.4745 10.7913C31.2053 11.076 31.0356 11.5025 31.0047 12.0491Z" fill="black"/>
<g id="g258">
<g id="g260">
<path id="path280" d="M31 12.3828V12.233C31 12.231 31 12.2293 31 12.2274C31 12.227 31 12.2266 31 12.2262C31 12.1697 31.0015 12.1144 31.0044 12.0608C31.0044 12.06 31.0044 12.0592 31.0044 12.0583C31.0044 12.0576 31.0044 12.0568 31.0047 12.056C31.0047 12.0543 31.0047 12.0528 31.0047 12.0512C31.0047 12.0507 31.0047 12.0503 31.0047 12.0499C31.0356 11.5033 31.2053 11.0768 31.4745 10.7921L31.5494 10.8673C31.2053 11.1778 31 11.6955 31 12.3828ZM31.5474 10.7204L31.5502 10.7176C31.5494 10.7188 31.5482 10.7196 31.5474 10.7204Z" fill="url(#paint10_linear_9234_41767)"/>
</g>
</g>
<g id="g284">
<g id="g286">
<path id="path304" d="M48.484 19.3359L33.6033 10.8807C33.1907 10.6469 32.8003 10.5359 32.4527 10.5359C32.0982 10.5359 31.789 10.6513 31.5476 10.8687L31.4727 10.7935C31.4963 10.7687 31.5203 10.7446 31.5455 10.7218C31.5464 10.721 31.5476 10.7202 31.5484 10.7193C31.7879 10.5035 32.0938 10.3882 32.4451 10.3861C32.4459 10.3861 32.447 10.3861 32.4482 10.3861C32.4499 10.3861 32.451 10.3861 32.4527 10.3861C32.8003 10.3861 33.1907 10.4971 33.6033 10.731L48.5797 19.2403L48.5793 19.2406L48.484 19.3359Z" fill="url(#paint11_linear_9234_41767)"/>
</g>
</g>
</g>
</g>
<defs>
<linearGradient id="paint0_linear_9234_41767" x1="43.1253" y1="11.9927" x2="25.9197" y2="29.1983" gradientUnits="userSpaceOnUse">
<stop stop-color="#00A0FF"/>
<stop offset="0.00657445" stop-color="#00A1FF"/>
<stop offset="0.2601" stop-color="#00BEFF"/>
<stop offset="0.5122" stop-color="#00D2FF"/>
<stop offset="0.7604" stop-color="#00DFFF"/>
<stop offset="1" stop-color="#00E3FF"/>
</linearGradient>
<linearGradient id="paint1_linear_9234_41767" x1="55.4617" y1="23.5682" x2="30.6547" y2="23.5682" gradientUnits="userSpaceOnUse">
<stop stop-color="#FFE000"/>
<stop offset="0.4087" stop-color="#FFBD00"/>
<stop offset="0.7754" stop-color="#FFA500"/>
<stop offset="1" stop-color="#FF9C00"/>
</linearGradient>
<linearGradient id="paint2_linear_9234_41767" x1="46.2283" y1="25.9223" x2="22.8963" y2="49.2544" gradientUnits="userSpaceOnUse">
<stop stop-color="#FF3A44"/>
<stop offset="1" stop-color="#C31162"/>
</linearGradient>
<linearGradient id="paint3_linear_9234_41767" x1="28.2585" y1="3.24591" x2="38.6772" y2="13.6646" gradientUnits="userSpaceOnUse">
<stop stop-color="#32A071"/>
<stop offset="0.0685" stop-color="#2DA771"/>
<stop offset="0.4762" stop-color="#15CF74"/>
<stop offset="0.8009" stop-color="#06E775"/>
<stop offset="1" stop-color="#00F076"/>
</linearGradient>
<linearGradient id="paint4_linear_9234_41767" x1="55.4195" y1="23.5991" x2="30.766" y2="23.5991" gradientUnits="userSpaceOnUse">
<stop stop-color="#CCB300"/>
<stop offset="0.4087" stop-color="#CC9700"/>
<stop offset="0.7754" stop-color="#CC8400"/>
<stop offset="1" stop-color="#CC7D00"/>
</linearGradient>
<linearGradient id="paint5_linear_9234_41767" x1="46.227" y1="25.9263" x2="22.8949" y2="49.2583" gradientUnits="userSpaceOnUse">
<stop stop-color="#CC2E36"/>
<stop offset="1" stop-color="#9C0E4E"/>
</linearGradient>
<linearGradient id="paint6_linear_9234_41767" x1="43.1253" y1="11.9944" x2="25.9197" y2="29.2" gradientUnits="userSpaceOnUse">
<stop stop-color="#008DE0"/>
<stop offset="0.00657445" stop-color="#008DE0"/>
<stop offset="0.2601" stop-color="#00A7E0"/>
<stop offset="0.5122" stop-color="#00B8E0"/>
<stop offset="0.7604" stop-color="#00C4E0"/>
<stop offset="1" stop-color="#00C7E0"/>
</linearGradient>
<linearGradient id="paint7_linear_9234_41767" x1="46.1361" y1="25.9837" x2="22.948" y2="49.1721" gradientUnits="userSpaceOnUse">
<stop stop-color="#E0333C"/>
<stop offset="1" stop-color="#AB0F56"/>
</linearGradient>
<linearGradient id="paint8_linear_9234_41767" x1="55.4614" y1="23.5684" x2="30.6544" y2="23.5684" gradientUnits="userSpaceOnUse">
<stop stop-color="#E0C500"/>
<stop offset="0.4087" stop-color="#E0A600"/>
<stop offset="0.7754" stop-color="#E09100"/>
<stop offset="1" stop-color="#E08900"/>
</linearGradient>
<linearGradient id="paint9_linear_9234_41767" x1="55.4619" y1="23.5713" x2="30.6548" y2="23.5713" gradientUnits="userSpaceOnUse">
<stop stop-color="#FFE840"/>
<stop offset="0.4087" stop-color="#FFCE40"/>
<stop offset="0.7754" stop-color="#FFBC40"/>
<stop offset="1" stop-color="#FFB540"/>
</linearGradient>
<linearGradient id="paint10_linear_9234_41767" x1="43.1253" y1="11.9934" x2="25.9197" y2="29.199" gradientUnits="userSpaceOnUse">
<stop stop-color="#40B8FF"/>
<stop offset="0.00657445" stop-color="#40B9FF"/>
<stop offset="0.2601" stop-color="#40CEFF"/>
<stop offset="0.5122" stop-color="#40DDFF"/>
<stop offset="0.7604" stop-color="#40E7FF"/>
<stop offset="1" stop-color="#40EAFF"/>
</linearGradient>
<linearGradient id="paint11_linear_9234_41767" x1="28.2553" y1="3.24616" x2="38.6741" y2="13.6649" gradientUnits="userSpaceOnUse">
<stop stop-color="#65B895"/>
<stop offset="0.0685" stop-color="#62BD95"/>
<stop offset="0.4762" stop-color="#50DB97"/>
<stop offset="0.8009" stop-color="#44ED98"/>
<stop offset="1" stop-color="#40F498"/>
</linearGradient>
</defs>
</svg>
